<svg width="375" height="39" viewBox="0 0 375 39" fill="none" xmlns="http://www.w3.org/2000/svg">
<g clip-path="url(#clip0_2002_2373)">
<path d="M340.261 38.5191C351.198 28.9027 366.563 19.5534 375 16.1876C373.698 15.3328 371.667 14.104 369.375 12.7684C358.49 16.4547 345.781 24.6287 334.427 33.8712C336.354 35.3671 338.386 36.9164 340.261 38.5191V38.5191Z" fill="white"></path>
<path d="M335.261 12.3945C333.646 11.5931 331.875 10.8452 330.521 10.2041C326.406 12.2877 321.042 15.4397 314.271 20.4082C315.729 21.2096 317.292 22.1712 318.958 23.1329C324.167 19.1794 329.427 15.4397 335.261 12.3945V12.3945Z" fill="white"></path>
<path d="M345 7.8C343.021 6.67808 336.146 4.06027 331.406 2.93835C330 3.4726 328.021 4.27397 326.667 4.86164C328.385 5.34246 334.791 7.10548 340.26 9.93698C341.666 9.24246 343.646 8.38767 345 7.8V7.8Z" fill="white"></path>
<path d="M321.719 7.10547C315.625 9.9904 309.219 13.9438 305.729 16.2411C306.979 16.8288 308.229 17.3096 309.948 18.1644C317.656 12.8219 323.698 9.563 326.094 8.49451C324.375 7.85341 322.76 7.42602 321.719 7.10547V7.10547Z" fill="white"></path>
<path d="M349.583 6.14384C350.99 5.66301 352.604 5.23562 354.01 4.80822C349.948 3.04521 344.844 1.17534 340.26 0C339.531 0.213699 337.344 0.80137 335.833 1.28219C337.396 1.76301 342.552 2.99178 349.583 6.14384ZM323.906 26.2315C325.573 27.2466 327.344 28.6356 329.062 29.811C340.469 20.7288 351.719 13.7301 364.062 9.77671C362.344 8.86849 360.833 8.06712 358.906 7.10548C351.51 9.02877 338.854 14.211 323.906 26.2315Z" fill="white"></path>
<path d="M0 35.741H8.33333C12.5521 35.741 14.5313 33.4972 14.5313 30.3451C14.5313 27.7808 13.2292 26.0712 10.5208 25.5369C12.9167 24.9493 14.0104 23.4534 14.0104 21.263C14.0104 18.4849 12.0313 16.241 7.8125 16.241H0.0520833V35.741H0ZM7.23958 27.4602C8.80208 27.4602 9.89583 28.2616 9.89583 29.8643C9.89583 31.5739 8.85417 32.2684 7.23958 32.2684H4.53125V27.4068H7.23958V27.4602V27.4602ZM6.71875 19.6602C8.28125 19.6602 9.375 20.3547 9.375 21.9575C9.375 23.5602 8.33333 24.2547 6.71875 24.2547H4.53125V19.6602H6.71875V19.6602ZM31.3542 16.1876H26.6667L19.5313 35.741H24.2708L25.5729 31.6808H32.4479L33.75 35.741H38.5417L31.3542 16.1876V16.1876ZM29.0104 20.889L31.25 28.1013H26.6667L29.0104 20.889V20.889ZM62.2917 16.1876H57.9688V29.2766L49.8438 16.1876H45V35.741H49.3229V22.7054L57.4479 35.741H62.2917V16.1876V16.1876ZM82.2396 35.741L75.9896 25.804V35.741H71.3542V16.1876H75.9896V25.5903L81.9271 16.1876H87.0833L80.8333 25.5903L87.6563 35.741H82.2396V35.741ZM104.063 25.9643C104.063 29.8643 106.354 32.2684 109.323 32.2684C112.292 32.2684 114.583 29.8643 114.583 25.9643C114.583 22.0643 112.292 19.6602 109.323 19.6602C106.354 19.6602 104.063 22.0643 104.063 25.9643ZM99.1667 25.9643C99.2188 20.2479 103.125 15.7602 109.323 15.7602C115.521 15.7602 119.427 20.2479 119.479 25.9643C119.427 31.6808 115.521 36.1684 109.323 36.1684C103.125 36.1684 99.2188 31.6808 99.1667 25.9643V25.9643ZM125.833 35.741H130.469V28.0479H136.51V24.3082H130.469V19.9273H137.76L138.594 16.1876H125.833V35.741V35.741ZM160.208 16.1876H155.521L148.385 35.741H153.125L154.427 31.6808H161.302L162.604 35.741H167.396L160.208 16.1876ZM157.865 20.889L160.104 28.1013H155.521L157.865 20.889ZM194.896 16.1876H189.479L184.531 26.7657L179.583 16.1876H174.167V35.741H178.333V22.652L184.479 35.741L190.625 22.652V35.741H194.948L194.896 16.1876V16.1876ZM203.906 35.741H216.927V32.0013H208.542V27.6205H215.156V23.9876H208.542V19.9273H216.198L217.031 16.1876H203.906V35.741ZM234.583 35.741H239.635L234.896 27.4602C237.5 26.7123 238.75 24.8424 238.75 22.1177C238.75 18.5917 236.667 16.241 231.979 16.241H224.635V35.7945H229.167V28.1013H230.417L234.583 35.741ZM231.094 19.8205C233.021 19.8205 234.01 20.6753 234.01 22.3314C234.01 23.9876 233.021 24.8424 231.094 24.8424H229.115V19.8205H231.094V19.8205ZM246.563 35.741H251.198V16.241H246.563V35.741ZM274.01 30.5054C272.24 31.7876 270.677 32.215 269.063 32.215C265.521 32.215 263.021 29.704 263.021 25.9643C263.021 22.2246 265.469 19.7136 268.906 19.7136C270.469 19.7136 272.031 20.141 273.75 21.4232V16.989C272.188 16.0808 270.365 15.7068 268.333 15.7068C262.031 15.7068 258.073 20.1945 258.021 25.9109C258.073 31.6808 261.927 36.115 268.333 36.115C270.469 36.115 272.292 35.741 273.958 34.8328V30.5054H274.01V30.5054ZM290.99 16.1876H286.302L279.167 35.741H283.906L285.208 31.6808H292.083L293.385 35.741H298.177L290.99 16.1876V16.1876ZM288.646 20.889L290.885 28.1013H286.302L288.646 20.889Z" fill="white"></path>
</g>
<defs>
<clipPath id="clip0_2002_2373">
<rect width="375" height="39" fill="white"></rect>
</clipPath>
</defs>
</svg>