<svg width="135" height="77" viewBox="0 0 135 77" fill="none" xmlns="http://www.w3.org/2000/svg">
<path d="M43.8816 68.8062H38.3594V46.8925H43.8816V68.8062V68.8062Z" fill="white"></path>
<path d="M88.4091 53.1715C88.1817 53.0559 86.4045 52.0015 83.7632 52.0015C80.1931 52.0015 77.7163 54.4887 77.7163 57.8464C77.7163 61.1025 80.0864 63.6966 83.7632 63.6966C86.359 63.6966 88.1659 62.6632 88.4091 62.5336V68.4152C87.7164 68.6079 85.829 69.1947 83.3767 69.1947C77.1653 69.1947 71.7131 64.9069 71.7131 57.8447C71.7131 51.3026 76.6458 46.5033 83.3767 46.5033C85.9655 46.5033 87.8861 47.1339 88.4091 47.2898V53.1715ZM30.7681 53.1715C30.546 53.0559 28.7705 52.0015 26.1293 52.0015C22.5522 52.0015 20.0771 54.4887 20.0771 57.8464C20.0771 61.1025 22.449 63.6966 26.1293 63.6966C28.725 63.6966 30.5302 62.6632 30.7681 62.5336V68.4152C30.0824 68.6079 28.1968 69.1947 25.7304 69.1947C19.5243 69.1947 14.0791 64.9069 14.0791 57.8447C14.0791 51.3026 19.0118 46.5033 25.7322 46.5033C28.3315 46.5033 30.2486 47.1339 30.7681 47.2898V53.1715V53.1715ZM105.78 52.0838C102.504 52.0838 100.071 54.6656 100.071 57.8464C100.071 61.0342 102.504 63.6143 105.78 63.6143C109.053 63.6143 111.493 61.0342 111.493 57.8464C111.493 54.6656 109.053 52.0838 105.78 52.0838ZM117.344 57.8464C117.344 64.1152 112.511 69.1947 105.782 69.1947C99.0494 69.1947 94.2234 64.1152 94.2234 57.8447C94.2234 51.5881 99.0511 46.5033 105.78 46.5033C112.511 46.5033 117.344 51.5881 117.344 57.8464M64.823 51.8736C64.7408 51.8474 62.4161 51.2045 60.506 51.2045C58.2933 51.2045 57.0899 51.9472 57.0899 52.9999C57.0899 54.3346 58.7131 54.8004 59.621 55.0877L61.1445 55.5729C64.7303 56.7149 66.3623 59.1723 66.3623 61.8417C66.3623 67.3468 61.5276 69.1964 57.3015 69.1964C54.3646 69.1964 51.6132 68.6535 51.342 68.5974V63.5529C51.8283 63.6755 54.1442 64.3692 56.5564 64.3692C59.3044 64.3692 60.5673 63.5635 60.5673 62.3234C60.5673 61.2129 59.474 60.5718 58.1044 60.1409C57.7721 60.0288 57.2683 59.8711 56.9255 59.759C53.8504 58.7852 51.2861 56.9741 51.2861 53.3484C51.2861 49.2498 54.3506 46.4981 59.4408 46.4981C62.1293 46.4981 64.6586 47.1514 64.823 47.1952V51.8718V51.8736Z" fill="white"></path>
<path d="M8.22296 23.3426C8.22296 21.8327 6.99153 20.6084 5.48198 20.6084C3.97244 20.6084 2.73926 21.8327 2.73926 23.3408V29.0947C2.75732 29.8108 3.05413 30.4916 3.56636 30.9917C4.07858 31.4919 4.7657 31.7717 5.48112 31.7717C6.19654 31.7717 6.88364 31.4919 7.39587 30.9917C7.90809 30.4916 8.2049 29.8108 8.22296 29.0947V23.3426V23.3426ZM23.2817 15.7934C23.2817 15.0652 22.9928 14.3669 22.4786 13.852C21.9644 13.3371 21.2671 13.0478 20.5399 13.0478C19.8127 13.0478 19.1153 13.3371 18.6011 13.852C18.0869 14.3669 17.798 15.0652 17.798 15.7934V29.0947C17.798 29.8229 18.0869 30.5212 18.6011 31.0361C19.1153 31.551 19.8127 31.8403 20.5399 31.8403C21.2671 31.8403 21.9644 31.551 22.4786 31.0361C22.9928 30.5212 23.2817 29.8229 23.2817 29.0947V15.7916V15.7934ZM38.3422 5.46272C38.3422 3.95288 37.1108 2.72677 35.6012 2.72677C34.0899 2.72677 32.8585 3.95288 32.8585 5.46272V34.5612C32.8766 35.2774 33.1734 35.9582 33.6856 36.4583C34.1978 36.9584 34.8849 37.2384 35.6004 37.2384C36.3158 37.2384 37.0029 36.9584 37.5151 36.4583C38.0274 35.9582 38.3242 35.2774 38.3422 34.5612V5.46272V5.46272ZM53.401 15.7934C53.401 15.0652 53.1121 14.3669 52.5979 13.852C52.0837 13.3371 51.3863 13.0478 50.6591 13.0478C49.9319 13.0478 49.2345 13.3371 48.7203 13.852C48.2061 14.3669 47.9173 15.0652 47.9173 15.7934V29.0947C47.9173 29.8229 48.2061 30.5212 48.7203 31.0361C49.2345 31.551 49.9319 31.8403 50.6591 31.8403C51.3863 31.8403 52.0837 31.551 52.5979 31.0361C53.1121 30.5212 53.401 29.8229 53.401 29.0947V15.7916V15.7934ZM68.444 23.3426C68.4445 22.6182 68.1576 21.9233 67.6466 21.4106C67.1356 20.8979 66.4422 20.6093 65.7188 20.6084C64.9938 20.6079 64.2982 20.8953 63.7844 21.4075C63.2706 21.9197 62.9806 22.6148 62.9778 23.3408V29.0947C62.9778 29.8205 63.2657 30.5167 63.7783 31.0299C64.2908 31.5432 64.986 31.8315 65.7109 31.8315C66.4357 31.8315 67.1309 31.5432 67.6435 31.0299C68.156 30.5167 68.444 29.8205 68.444 29.0947V23.3426V23.3426ZM83.5098 15.7934C83.4917 15.0795 83.1958 14.4009 82.6853 13.9024C82.1747 13.4039 81.4898 13.1249 80.7766 13.1249C80.0635 13.1249 79.3786 13.4039 78.868 13.9024C78.3574 14.4009 78.0616 15.0795 78.0435 15.7934V29.0947C78.0435 29.8205 78.3315 30.5167 78.844 31.0299C79.3566 31.5432 80.0518 31.8315 80.7766 31.8315C81.5015 31.8315 82.1967 31.5432 82.7092 31.0299C83.2218 30.5167 83.5098 29.8205 83.5098 29.0947V15.7916V15.7934ZM98.579 5.46272C98.579 4.73687 98.291 4.04075 97.7785 3.5275C97.2659 3.01425 96.5707 2.72592 95.8459 2.72592C95.121 2.72592 94.4258 3.01425 93.9133 3.5275C93.4007 4.04075 93.1128 4.73687 93.1128 5.46272V34.5612C93.0966 34.9307 93.1553 35.2996 93.2854 35.6458C93.4154 35.992 93.6141 36.3082 93.8695 36.5753C94.1249 36.8425 94.4317 37.0552 94.7713 37.2004C95.111 37.3457 95.4765 37.4207 95.8459 37.4207C96.2152 37.4207 96.5807 37.3457 96.9204 37.2004C97.2601 37.0552 97.5668 36.8425 97.8222 36.5753C98.0776 36.3082 98.2763 35.992 98.4064 35.6458C98.5364 35.2996 98.5952 34.9307 98.579 34.5612V5.46272V5.46272ZM113.645 15.7934C113.645 14.2818 112.422 13.0539 110.878 13.0539C110.153 13.0544 109.458 13.343 108.945 13.8564C108.433 14.3697 108.145 15.0658 108.145 15.7916V29.0947C108.145 30.6133 109.37 31.8376 110.878 31.8376C112.422 31.8376 113.645 30.6133 113.645 29.0947V15.7916V15.7934ZM128.683 23.3426C128.683 22.616 128.394 21.9192 127.881 21.4054C127.368 20.8917 126.672 20.6031 125.947 20.6031C125.221 20.6031 124.525 20.8917 124.012 21.4054C123.499 21.9192 123.211 22.616 123.211 23.3426V29.0947C123.211 30.6133 124.437 31.8393 125.947 31.8393C127.455 31.8393 128.681 30.6133 128.681 29.0947V23.3426H128.683Z" fill="white"></path>
<path d="M125.521 65.9193V66.2626H124.545V68.8041H124.143V66.2644H123.163V65.9193H125.521V65.9193ZM125.726 65.9193H126.354L127.216 68.2857H127.23L128.064 65.921H128.68V68.8041H128.269V66.4395H128.255L127.38 68.8041H127.001L126.147 66.4395H126.128V68.8041H125.726V65.9193V65.9193Z" fill="white"></path>
</svg>