<svg width="154" height="65" viewBox="0 0 154 65" fill="none" xmlns="http://www.w3.org/2000/svg">
<path d="M132.48 28.3912C129.906 28.9873 123.109 29.3184 123.109 29.3184L122.273 32.0118C122.273 32.0118 125.638 31.7248 128.102 31.9677C128.102 31.9677 128.894 31.9015 128.982 32.8508C129.026 33.8222 128.916 34.8377 128.916 34.8377C128.916 34.8377 128.85 35.4338 128.036 35.5883C127.09 35.7429 120.711 36.0299 120.711 36.0299L119.677 39.5181C119.677 39.5181 119.303 40.3128 120.161 40.0921C120.953 39.8713 127.64 38.5908 128.52 38.7674C129.444 38.9882 130.5 40.2687 130.192 41.4167C129.84 42.8075 123.153 47.0905 119.105 46.8035C119.105 46.8035 116.971 46.936 115.189 44.0439C113.473 41.2842 115.783 36.0961 115.783 36.0961C115.783 36.0961 114.749 33.6676 115.519 32.7845C115.519 32.7845 115.959 32.4092 117.279 32.2988L118.929 28.899C118.929 28.899 117.059 29.0094 115.959 27.6406C114.947 26.3159 114.859 25.7419 115.651 25.3887C116.487 24.9472 124.23 23.5563 129.554 23.7329C129.554 23.7329 131.424 23.5122 133.074 26.7575C133.074 26.7575 133.822 28.0821 132.502 28.3912M112.417 41.4608C111.757 43.0725 109.932 44.7724 107.732 43.7348C105.488 42.6751 101.946 35.4338 101.946 35.4338C101.946 35.4338 100.626 32.7404 100.362 32.8287C100.362 32.8287 100.076 32.2988 99.9224 35.2572C99.7024 38.1934 99.9664 43.9114 98.7564 44.8166C97.6565 45.6996 96.3366 45.3243 95.5887 44.2867C94.9727 43.2491 94.7088 40.7544 95.0607 36.4052C95.4567 32.056 96.4466 27.4198 97.7005 25.9848C99.0204 24.5277 100.076 25.5874 100.472 25.9848C100.472 25.9848 102.166 27.5302 105.026 32.1001L105.51 32.9391C105.51 32.9391 108.106 37.2883 108.37 37.2662C108.37 37.2662 108.59 37.487 108.766 37.3103C109.03 37.2441 108.942 35.8312 108.942 35.8312C108.942 35.8312 108.458 31.1288 106.038 23.181C106.038 23.181 105.686 22.1654 105.928 21.1941C106.148 20.311 107.094 20.7525 107.094 20.7525C107.094 20.7525 110.746 22.5187 112.527 28.4795C114.287 34.4403 113.099 39.8492 112.439 41.4608M94.5108 26.1614C94.1588 26.7796 94.0048 27.6406 92.4869 27.8834C92.4869 27.8834 77.7481 28.921 77.0221 29.9587C77.0221 29.9587 76.5381 30.5768 77.3301 30.7314C78.166 30.908 81.5098 31.3495 83.0936 31.4378C84.8095 31.4378 90.5731 31.482 92.6849 34.0871C92.6849 34.0871 93.8948 35.3234 93.8508 38.1272C93.8068 40.9972 93.3009 42.0128 92.1789 43.0504C91.013 44.0218 81.0258 48.5255 74.5803 41.6375C74.5803 41.6375 71.6325 38.3259 75.6142 35.8091C75.6142 35.8091 78.474 34.0429 85.7994 36.0961C85.7994 36.0961 87.9993 36.8909 87.9113 37.7077C87.7793 38.5908 86.0854 39.4739 83.6216 39.4298C81.2458 39.3635 79.4859 38.2155 79.8379 38.4142C80.1679 38.5246 77.2641 37.0013 76.3622 38.0389C75.4822 39.0103 75.7022 39.5843 76.5821 40.1804C78.782 41.4608 87.4273 40.9972 90.0011 38.1051C90.0011 38.1051 91.035 36.935 89.4732 35.9857C87.9333 35.1026 83.4456 34.5507 81.7078 34.4845C80.0579 34.3962 73.8764 34.4845 72.9524 32.8728C72.9524 32.8728 72.0725 31.7248 73.0404 28.5899C74.0523 25.2783 81.2458 23.9978 84.3695 23.7329C84.3695 23.7329 92.9489 23.3797 94.5548 25.1459C94.5548 25.1459 94.7748 25.5432 94.5108 26.1393M70.1806 45.5672C69.1467 46.3399 66.9469 46.0087 66.3089 45.1256C65.693 44.3529 65.473 41.3063 65.583 36.5156C65.737 31.6145 65.803 25.6095 66.9029 24.6381C68.0028 23.6888 68.6628 24.5277 69.1027 25.1679C69.5427 25.8302 70.1146 26.5588 70.2026 28.0821C70.3346 29.6275 70.7086 37.5753 70.7086 37.5753C70.7086 37.5753 71.1926 44.8166 70.2026 45.5672M72.3805 19.737C69.3447 20.7746 67.2769 20.4434 65.517 19.6707C64.747 21.0616 64.2851 21.4811 63.7131 21.5694C62.8332 21.6577 62.0633 20.2447 61.9533 19.8032C61.7773 19.472 61.3593 18.876 61.8653 17.5293C60.1494 15.9839 60.0174 13.9086 60.3254 12.5178C60.7214 10.884 63.6251 4.74661 72.4245 4.01806C72.4245 4.01806 76.7361 3.70899 77.4841 6.005H77.6161C77.6161 6.005 81.7957 6.005 81.7078 9.75811C81.7078 13.5112 77.0881 18.1916 72.3805 19.8032M76.2962 9.05165C73.5244 9.49319 69.2567 13.2021 67.2109 16.2709C70.3566 16.8449 75.8562 16.6241 78.32 11.6347C78.32 11.6347 79.4859 8.49972 76.2962 9.05165ZM64.1311 11.4801C63.2512 12.9151 63.2072 13.7761 63.6251 14.3502C64.6591 12.8048 66.4849 10.3763 69.2347 8.47764C67.1229 8.69841 65.341 9.5815 64.1311 11.4801ZM139.079 45.4126C137.056 50.4021 135.34 55.4577 134.35 63.0302C134.35 63.0302 134.13 64.5093 132.92 64.0237C131.71 63.5821 129.73 61.5952 129.29 58.7914C128.85 55.1266 130.478 48.945 133.8 41.8362C132.832 40.2908 132.15 37.9947 132.7 34.7715C132.7 34.7715 133.58 28.8107 139.519 23.4238C139.519 23.4238 140.223 22.8278 140.619 23.0265C141.103 23.2472 140.905 25.1459 140.509 26.1173C140.157 27.0445 137.517 31.6365 137.517 31.6365C137.517 31.6365 135.868 34.7715 136.33 37.222C139.453 32.4092 146.559 22.6511 150.958 25.7419C153.752 27.7289 153.752 34.1312 151.662 37.8402C150.013 40.7765 145.349 46.8477 139.123 45.4347M148.275 30.4223C146.647 32.1885 143.743 35.5442 141.455 40.0921C143.875 39.8271 146.229 38.4804 146.955 37.796C148.121 36.7584 150.804 33.9546 150.386 30.2457C150.386 30.2457 150.123 28.3029 148.275 30.4223M49.7222 48.0177C41.9348 50.4021 34.5874 49.2982 30.5837 48.2385C30.4737 49.8722 30.2977 50.5566 30.0337 50.8215C29.7257 51.1748 27.1739 52.6319 25.766 50.5566C25.1501 49.5631 24.8421 47.7749 24.6661 46.1412C15.6468 42.0348 11.4671 35.9857 11.3351 35.7649C11.1152 35.5442 9.06932 33.4027 11.1152 30.7534C13.029 28.3691 19.3645 25.9627 25.0401 25.0134C25.2601 20.1564 25.788 16.4033 26.47 14.7475C27.2839 12.7606 28.3178 14.5268 29.2418 15.8514C29.9897 16.8449 30.4517 21.1057 30.4957 24.5056C34.1914 24.329 36.4352 24.5939 40.5489 25.3887C45.9605 26.3159 49.5682 29.0977 49.2822 32.2326C49.0183 35.3234 46.2025 36.6039 45.1026 36.6922C44.0026 36.7805 42.2428 35.9636 42.2428 35.9636C41.0109 35.3896 42.1328 34.8598 43.5627 34.2416C45.1466 33.4689 44.7946 32.6962 44.7946 32.6962C44.2226 30.9301 37.2052 29.76 30.2317 29.76C30.2317 33.6235 30.3857 40.0258 30.4957 43.7569C35.3793 44.6841 39.031 44.4854 39.031 44.4854C39.031 44.4854 56.8497 43.9776 57.3556 32.5638C57.9056 21.1278 39.537 10.1776 26.008 6.73355C12.5011 3.17913 4.84565 5.69592 4.1857 6.02708C3.45975 6.38032 4.1197 6.51278 4.1197 6.51278C4.1197 6.51278 4.84565 6.62316 6.16554 7.06471C7.48544 7.50625 6.42952 8.16856 6.42952 8.16856C4.1197 8.96334 1.5459 8.49972 1.03994 7.44002C0.533977 6.40239 1.36991 5.45308 2.35984 4.06222C3.28377 2.62721 4.33969 2.67136 4.33969 2.67136C21.0584 -3.17907 41.4728 7.30755 41.4728 7.30755C60.5674 16.9773 63.8231 28.347 63.4712 32.7625C63.1632 37.1117 61.4913 44.4633 49.7222 48.0398M12.985 32.2326C11.0932 33.1157 12.4131 34.5286 12.4131 34.5286C15.9768 38.348 20.3325 40.7544 24.5121 42.2556C24.9961 35.6325 24.9521 33.2702 24.9521 29.9366C18.4846 30.3781 14.7449 31.4378 12.985 32.2326Z" fill="white"></path>
</svg>