<svg width="233" height="50" viewBox="0 0 233 50" fill="none" xmlns="http://www.w3.org/2000/svg">
<g clip-path="url(#clip0_2002_2371)">
<path d="M23.5418 1.85712H9.84232V2.96902H14.2837V25.6095C14.2837 32.4762 12.4335 34.3309 8.17738 34.3309C5.58616 34.3309 5.03039 32.2904 5.03039 31.3619C5.03039 28.95 4.84513 27.2809 2.62205 27.2809C0.401342 27.2809 0.0332031 29.5071 0.0332031 30.25C0.0332031 33.4047 1.51288 35.8166 7.62161 35.8166C15.0271 35.8166 18.9128 33.4047 18.9128 25.0547V2.96664H23.3566V1.85712H23.5418V1.85712ZM25.3944 30.619C24.6534 30.619 23.9123 30.8095 23.5418 31.3619C22.9861 31.919 22.8008 32.4762 22.8008 33.219C22.8008 33.9571 22.9861 34.5166 23.5418 35.0762C24.0976 35.6309 24.6534 35.8143 25.3944 35.8143C26.133 35.8143 26.6888 35.6285 27.2446 35.0762C27.8004 34.519 27.9856 33.9571 27.9856 33.219C27.9856 32.4762 27.8004 31.919 27.2446 31.3619C26.6888 30.8047 26.133 30.619 25.392 30.619H25.3944ZM55.7528 30.619C55.0117 30.619 54.456 30.8095 53.9002 31.3619C53.3468 31.919 53.1615 32.4762 53.1615 33.219C53.1615 33.9571 53.3468 34.5166 53.9002 35.0762C54.456 35.6309 55.0117 35.8143 55.7528 35.8143C56.4938 35.8143 57.2324 35.6285 57.6053 35.0762C58.1587 34.5166 58.344 33.9571 58.344 33.219C58.344 32.4762 58.1587 31.919 57.603 31.3619C57.0472 30.8047 56.4938 30.619 55.7504 30.619H55.7528ZM46.1242 1.85712H32.7952V2.96902H36.6832V28.9524C36.6832 30.9928 36.4979 31.5476 36.3127 32.1047C36.1274 32.85 35.5716 33.2214 34.6454 33.5928C34.092 33.7785 33.1657 33.9619 31.8689 33.9619V35.0762H46.3094V33.9619C45.0126 33.9619 44.0887 33.7785 43.5306 33.5928C42.6067 33.2214 42.0509 32.6643 41.868 32.1071C41.6209 31.4554 41.4945 30.7639 41.4951 30.0666V21.1547H45.0126C55.3799 21.1547 58.3416 17.0738 58.3416 11.5047C58.3416 5.75236 56.6767 1.85474 46.1242 1.85474V1.85712ZM44.2716 19.8571H41.4951V3.15474H43.9035C51.8624 3.15474 53.7126 6.49521 53.7126 11.6905C53.7126 17.0714 50.5679 19.8571 44.2716 19.8571V19.8571ZM101.105 31.919C100.861 31.2023 100.736 30.4502 100.735 29.6928V2.96902H104.25V1.85712H95.7398C95.5545 2.22855 85.5601 27.0952 85.5601 27.0952L85.3749 27.2833C85.1896 27.2833 85.1896 27.2833 85.1896 27.0976C85.1896 27.0976 74.4542 2.04283 74.4542 1.85712H65.0061V2.9714H69.0794V31.1785C69.0794 31.7381 68.8941 32.2952 68.5236 32.85C68.1531 33.4071 67.5973 33.7785 67.0416 33.9619C66.671 34.1524 65.9324 34.1524 65.189 34.1524V35.2619H74.4471V34.1476C73.7061 34.1476 73.3355 33.9619 72.7821 33.9619C72.0411 33.7762 71.6706 33.4047 71.3001 32.8476C70.9296 32.4762 70.7443 31.919 70.7443 31.1785L70.5591 28.7643V6.49283H71.1148C71.1148 6.49283 83.147 34.7 83.3323 35.0714H84.2586L95.735 6.68093H96.1055V29.6928C96.1055 30.6214 95.9203 31.3619 95.735 32.1047C95.5497 32.8476 94.9963 33.219 94.2553 33.5904C93.4798 33.8483 92.6663 33.9731 91.8494 33.9595V35.0738H104.808V33.9595C103.99 33.9732 103.176 33.8484 102.399 33.5904C101.846 33.219 101.29 32.6619 101.105 31.919V31.919ZM118.69 10.7643C111.655 10.7643 107.399 15.4024 107.399 23.3833C107.399 35.2595 116.655 36.0024 118.505 36.0024C122.393 36.0024 129.799 33.5905 129.799 23.2C129.799 15.0333 124.984 10.7643 118.69 10.7643V10.7643ZM118.505 34.5166C113.323 34.5166 112.396 31.9214 112.396 23.569C112.396 17.0738 112.767 12.2476 118.505 12.2476C124.614 12.2476 124.614 17.2571 124.614 23.1952C124.614 31.5476 123.134 34.5166 118.505 34.5166ZM147.942 11.1357C143.866 11.1357 142.389 13.5476 141.275 16.1452H140.904C140.904 16.1452 140.351 12.4333 140.166 11.5047H132.019V12.8047H136.461V29.1357C136.461 30.8047 136.278 31.9214 135.91 32.6595C135.537 33.4047 134.425 33.9595 132.76 33.9595H132.019V35.4452H145.719V33.9595H144.978C143.125 33.9595 142.389 33.5904 142.014 32.8476C141.645 32.1047 141.46 30.9904 141.46 29.3214V20.4143C141.46 17.6285 143.681 14.2905 146.274 14.2905C149.051 14.2905 148.863 18.3714 152.013 16.7024C153.495 15.7738 153.124 11.1357 147.942 11.1357V11.1357ZM201.809 32.6595C200.327 32.6595 199.959 31.9214 199.773 30.4357V17.4452C199.773 15.2166 199.4 13.919 198.108 12.6166C196.812 11.319 194.403 10.7595 190.888 10.7595C187.556 10.7595 185.15 11.319 183.483 12.6166C182.003 13.7333 181.264 14.8452 181.264 16.5166C181.264 17.2547 181.45 17.8143 181.818 18C182.188 18.3714 182.744 18.5571 183.297 18.5571C184.592 18.5571 185.335 17.819 185.703 16.1452C185.893 14.8452 186.259 14.1047 186.817 13.3595C187.554 12.6214 188.67 12.2476 189.962 12.2476C191.629 12.2476 192.924 12.6166 193.479 13.5452C194.035 14.4738 194.406 15.5881 194.406 17.069V20.969C190.145 21.3405 179.78 22.2666 180.336 30.0619C180.521 33.0309 183.114 35.8143 186.63 35.8143C190.518 35.8143 192.921 33.5904 194.586 31.9166C194.774 33.5881 196.439 35.6309 199.218 35.6309C202.362 35.6309 204.215 34.1452 204.402 30.2476H203.661C203.661 31.7333 202.735 32.6619 201.809 32.6619V32.6595ZM194.776 30.0643V30.25L194.591 30.4357C192.37 32.4785 190.52 33.2214 189.223 33.2214C185.891 33.2214 185.335 30.4357 185.335 29.1381C185.335 24.6857 191.444 22.4571 194.776 22.4571V30.0643V30.0643ZM229.578 32.4762C229.208 31.7357 228.652 30.619 228.652 28.9524V18.1857C228.652 16.7024 228.467 15.2166 227.911 14.2905C227.355 13.1762 226.431 12.4333 225.505 11.8762C224.394 11.319 223.284 11.1357 221.99 11.1357C217.176 11.1357 215.323 14.1047 214.214 15.7738H213.843L212.917 11.5047H205.512V12.8047H209.217V29.1357C209.217 30.4357 209.029 31.3619 208.844 31.9214C208.656 32.6595 208.108 33.219 207.549 33.4047C207.179 33.5904 206.438 33.7762 205.512 33.7762V35.2595H217.173V33.7762C216.062 33.5904 215.135 33.4047 214.767 32.8476C214.397 32.2904 214.029 31.1762 214.029 29.5071V23.1976C214.029 20.6024 214.029 18 214.955 16.5166C215.879 14.8452 217.729 13.919 219.582 13.919C221.434 13.919 222.358 14.4762 222.916 15.5881C223.47 16.5166 223.652 19.3 223.652 21.1547V28.95C223.652 30.2476 223.842 31.1762 223.652 31.7357C223.47 32.4738 223.284 33.0333 222.726 33.4024C222.358 33.7762 221.615 33.7762 220.876 33.9595V35.4452H232.172V33.9595C230.873 33.4047 229.949 33.0309 229.578 32.4762V32.4762ZM176.635 9.64997C175.894 9.83569 175.524 10.5785 175.153 11.5071C174.968 12.4357 174.597 12.9905 174.042 13.1738C173.486 13.3619 172.932 13.3619 172.377 12.9905C171.082 11.8762 168.859 10.5785 164.786 10.5785C158.121 10.5785 155.345 15.2166 155.345 19.4833C155.345 24.4952 157.198 26.9095 161.451 27.8357C161.639 27.8357 161.639 28.2071 161.451 28.2071C157.936 28.95 154.604 30.0643 154.604 33.4047C154.604 35.4476 155.715 36.5595 157.383 37.3024C159.045 38.0428 161.451 38.4166 164.415 38.4166C167.004 38.4166 168.857 38.6024 169.968 38.6024C171.084 38.7466 172.157 39.1264 173.115 39.7166C173.856 40.2738 174.227 41.2024 174.227 42.3119C174.227 43.9833 173.301 45.0976 171.636 46.2119C169.973 47.1405 167.931 47.5119 165.156 47.5119C162.936 47.5119 160.9 47.3238 159.233 46.2119C157.939 45.469 157.751 43.9857 157.939 42.8714C158.126 41.7571 157.751 40.6452 156.456 40.2738C156.063 40.1867 155.651 40.2302 155.284 40.3976C154.917 40.5651 154.614 40.8475 154.421 41.2024C154.048 41.7547 153.863 42.4976 153.863 43.4262C153.863 46.2095 156.086 47.5071 157.751 48.0643C160.342 48.8047 162.012 48.9928 164.23 48.9928C167.38 48.9928 169.783 48.4357 171.636 47.6928C173.488 46.7643 174.6 45.6524 175.338 44.3524C176.077 43.0547 176.45 41.7547 176.45 40.4547C176.45 38.7857 176.077 37.3 175.338 36.3738C172.932 33.219 169.598 33.5881 162.195 33.219C158.677 33.219 157.936 32.4762 157.936 31.3619C157.936 29.6928 159.233 29.1357 164.415 28.2071C169.598 27.4643 174.41 25.4238 174.41 19.3C174.41 17.4428 174.042 15.9595 173.484 14.8476C174.597 15.0309 175.524 15.0309 176.448 14.8476C177.562 14.4762 178.113 13.919 178.485 13.3619C178.856 12.619 179.039 11.8762 178.671 11.319C178.856 9.83569 177.93 9.27855 176.635 9.64997V9.64997ZM164.974 27.0952C161.829 27.0952 160.159 25.9785 160.159 19.6714C160.159 15.219 161.641 11.8762 164.974 11.8762C168.862 11.8762 169.971 14.8452 169.971 19.4857C169.971 26.1666 167.935 27.0952 164.974 27.0952Z" fill="white"></path>
</g>
<defs>
<clipPath id="clip0_2002_2371">
<rect width="232.759" height="50" fill="white"></rect>
</clipPath>
</defs>
</svg>