<svg width="199" height="40" viewBox="0 0 199 40" fill="none" xmlns="http://www.w3.org/2000/svg">
<path d="M72.8672 1.26489H80.3919L93.1868 24.4098L105.981 1.26489H113.343V39.2963H107.204V10.1481L95.9848 30.3319H90.2257L79.0065 10.1481V39.2963H72.8672V1.26489Z" fill="white"></path>
<path d="M133.146 39.9755C130.302 39.9755 127.803 39.3461 125.648 38.0875C123.493 36.8288 121.813 35.0857 120.609 32.8582C119.405 30.6305 118.803 28.077 118.803 25.1976C118.803 22.282 119.391 19.7013 120.568 17.4554C121.746 15.2101 123.38 13.4534 125.472 12.1852C127.564 10.9179 129.968 10.284 132.684 10.2837C135.382 10.2837 137.705 10.922 139.652 12.1987C141.599 13.4758 143.097 15.2642 144.148 17.564C145.198 19.8642 145.723 22.5626 145.723 25.6593V27.3434H124.888C125.268 29.6619 126.205 31.4865 127.699 32.8172C129.194 34.1484 131.081 34.8139 133.363 34.8138C135.192 34.8138 136.768 34.5422 138.09 33.9989C139.412 33.4556 140.652 32.6316 141.812 31.527L145.072 35.5202C141.829 38.4906 137.854 39.9757 133.146 39.9755V39.9755ZM137.628 17.4145C136.342 16.1017 134.658 15.4452 132.576 15.445C130.547 15.445 128.849 16.1151 127.482 17.4554C126.114 18.7956 125.25 20.5976 124.888 22.8613H139.829C139.647 20.5431 138.914 18.7275 137.628 17.4145V17.4145Z" fill="white"></path>
<path d="M153.168 15.9886H147.517V10.963H153.168V2.65051H159.09V10.963H167.674V15.9886H159.09V28.729C159.09 30.8477 159.452 32.3599 160.176 33.2655C160.9 34.1713 162.141 34.6241 163.898 34.6237C164.676 34.6237 165.337 34.592 165.881 34.5287C166.424 34.4655 167.022 34.3795 167.674 34.2705V39.2417C166.93 39.4569 166.172 39.6204 165.405 39.7309C164.528 39.86 163.643 39.9235 162.757 39.921C156.364 39.921 153.167 36.4258 153.168 29.4353V15.9886Z" fill="white"></path>
<path d="M198.534 39.2963H192.721V35.3302C191.688 36.8154 190.375 37.9608 188.782 38.7665C187.188 39.5721 185.377 39.9751 183.349 39.9756C180.85 39.9756 178.636 39.3371 176.707 38.0602C174.778 36.7835 173.261 35.0269 172.157 32.7903C171.052 30.5536 170.499 27.9956 170.5 25.1162C170.5 22.2186 171.061 19.6559 172.184 17.4282C173.307 15.2008 174.859 13.4533 176.843 12.1853C178.826 10.918 181.103 10.2841 183.675 10.2838C185.612 10.2838 187.351 10.6596 188.89 11.4113C190.409 12.1459 191.724 13.2419 192.721 14.6031V10.9631H198.534V39.2963ZM192.612 20.8784C191.978 19.2665 190.977 17.9942 189.61 17.0614C188.243 16.1289 186.663 15.6626 184.87 15.6626C182.334 15.6626 180.315 16.5137 178.812 18.216C177.309 19.9184 176.557 22.2184 176.557 25.1161C176.557 28.0321 177.282 30.3412 178.731 32.0433C180.179 33.7457 182.144 34.5969 184.626 34.5968C186.454 34.5968 188.084 34.1259 189.515 33.1841C190.946 32.2428 191.978 30.9751 192.612 29.381L192.612 20.8784Z" fill="white"></path>
<path d="M6.50471 26.3791C6.50471 28.6785 7.00943 30.444 7.66911 31.5121C8.53404 32.911 9.82408 33.5037 11.1393 33.5037C12.8356 33.5037 14.3874 33.0827 17.378 28.9466C19.7738 25.6314 22.5968 20.978 24.4963 18.0607L27.7131 13.1183C29.9476 9.68588 32.534 5.87015 35.4995 3.28377C37.9204 1.17278 40.5319 0 43.1602 0C47.5728 0 51.7759 2.55706 54.9927 7.35288C58.5131 12.6052 60.222 19.2209 60.222 26.0482C60.222 30.1068 59.422 33.089 58.0607 35.445C56.7456 37.7235 54.1822 40 49.8702 40V33.5037C53.5623 33.5037 54.4838 30.111 54.4838 26.2283C54.4838 20.6953 53.1937 14.555 50.3518 10.1675C48.3351 7.0555 45.7215 5.15391 42.8461 5.15391C39.7361 5.15391 37.2335 7.49947 34.4209 11.6817C32.9256 13.9037 31.3906 16.6115 29.667 19.667L27.7696 23.0283C23.9581 29.7864 22.9927 31.3256 21.0869 33.866C17.7466 38.3141 14.8942 40 11.1393 40C6.6848 40 3.86805 38.0712 2.12355 35.1644C0.699469 32.7958 0 29.688 0 26.1466L6.50471 26.3791Z" fill="white"></path>
<path d="M5.12891 7.8115C8.1111 3.21464 12.4148 0 17.3509 0C20.2095 0 23.0514 0.84608 26.019 3.26912C29.265 5.91834 32.7247 10.2806 37.0409 17.4702L38.5886 20.0503C42.3247 26.2744 44.4504 29.4764 45.6943 30.9864C47.2943 32.9256 48.4148 33.5037 49.8703 33.5037C53.5624 33.5037 54.4839 30.111 54.4839 26.2283L60.2221 26.0482C60.2221 30.1068 59.4221 33.089 58.0608 35.445C56.7457 37.7235 54.1823 40 49.8703 40C47.1896 40 44.8148 39.4178 42.1886 36.9403C40.1697 35.0388 37.8095 31.6607 35.9938 28.6241L30.5928 19.6021C27.8828 15.0743 25.397 11.6984 23.9582 10.1696C22.4106 8.52565 20.4211 6.5403 17.2462 6.5403C14.6765 6.5403 12.4944 8.34346 10.6682 11.1016L5.12891 7.8115Z" fill="white"></path>
<path d="M17.2461 6.5403C14.6764 6.5403 12.4942 8.34346 10.6681 11.1016C8.08585 14.999 6.50471 20.8042 6.50471 26.3791C6.50471 28.6785 7.00943 30.444 7.66911 31.5121L2.12355 35.1644C0.699469 32.7958 0 29.688 0 26.1466C0 19.7068 1.76753 12.9947 5.12879 7.8115C8.11099 3.21464 12.4147 0 17.3508 0L17.2461 6.5403Z" fill="white"></path>
</svg>