<svg width="175" height="50" viewBox="0 0 175 50" fill="none" xmlns="http://www.w3.org/2000/svg">
<path d="M92.7761 13.3207C92.5343 13.6133 92.3975 13.9401 92.3975 14.5082V30.1298H92.3107C92.3107 30.1298 83.7445 14.8862 83.3304 14.1815C83.0372 13.6816 82.7099 13.3378 82.2787 13.0793C81.8475 12.8391 81.3992 12.6843 80.5381 12.6843H77.7116C77.0556 12.6843 76.6428 12.9074 76.3496 13.2524C76.1078 13.5438 75.9697 13.8718 75.9697 14.4387V36.5818C75.9697 37.15 76.1078 37.4767 76.3496 37.7693C76.6428 38.1131 77.0556 38.3362 77.7116 38.3362H79.3141C79.9689 38.3362 80.3829 38.1131 80.6761 37.7693C80.9167 37.4767 81.0548 37.15 81.0548 36.5818V20.581H81.1415C81.1415 20.581 90.0351 36.3063 90.3979 36.8915C90.8975 37.7169 91.7415 38.3362 92.9483 38.3362H95.6894C96.3441 38.3362 96.7582 38.1131 97.0513 37.7693C97.2919 37.4767 97.43 37.15 97.43 36.5818V16.6065H133.438C133.801 16.6065 134.076 16.504 134.283 16.3321C134.507 16.1249 134.611 15.8493 134.611 15.4372V13.923C134.611 13.5097 134.507 13.2341 134.283 13.0281C134.076 12.8562 133.801 12.7526 133.438 12.7526H94.1381C93.4834 12.7526 93.0693 12.9769 92.7761 13.3207ZM108.497 19.2387C102.515 19.2387 99.1535 23.9021 99.1535 28.8228C99.1535 34.0703 102.757 38.6813 108.531 38.6813C111.41 38.6813 114.236 37.5974 115.856 35.6869C116.563 34.8615 117.133 33.7082 117.133 33.0035C117.133 32.7621 117.08 32.556 116.943 32.4012C116.805 32.2293 116.597 32.1256 116.236 32.1256H113.461C112.909 32.1256 112.53 32.3317 112.254 32.745C111.444 33.9325 110.271 34.5518 108.548 34.5518C105.962 34.5518 104.291 32.5902 104.17 30.4395H116.168C116.701 30.4395 117.08 30.3188 117.339 30.0615C117.632 29.786 117.77 29.3898 117.77 28.6497C117.77 26.3966 117.063 24.057 115.581 22.2672C114.064 20.4603 111.754 19.2387 108.497 19.2387M126.991 19.2387C122.269 19.2387 119.166 21.4759 119.166 25.0543C119.166 26.3271 119.632 27.3598 120.39 28.1681C121.27 29.1154 122.528 29.7689 124.355 30.2334L128.302 31.2307C129.388 31.5063 130.353 31.833 130.353 32.7791C130.353 34.2422 128.801 34.7408 127.147 34.7408C126.336 34.7408 125.492 34.586 124.802 34.2422C124.32 34.0008 123.907 33.657 123.614 33.1924C123.355 32.7962 123.269 32.5036 122.872 32.2805C122.63 32.1427 122.337 32.1256 121.941 32.1256H119.804C119.339 32.1256 119.115 32.2634 118.96 32.4524C118.805 32.6414 118.752 32.9169 118.752 33.1924C118.752 33.8801 118.994 34.7408 119.563 35.515C120.873 37.2694 123.614 38.6813 127.112 38.6813C130.56 38.6813 135.335 37.2524 135.335 32.6414C135.335 31.4551 134.989 30.4395 134.352 29.6141C133.542 28.5644 132.388 27.8414 130.422 27.3427L126.51 26.3442C124.889 25.9321 124.13 25.6395 124.13 24.641C124.13 23.6778 124.993 22.9036 126.991 22.9036C128.164 22.9036 129.233 23.1621 129.923 23.8851C130.491 24.4874 130.388 24.797 130.836 25.0372C131.111 25.175 131.421 25.175 131.905 25.175H133.852C134.162 25.175 134.387 25.1238 134.558 24.9336C134.697 24.7787 134.783 24.5386 134.783 24.1423C134.783 23.2474 134.197 22.0953 133.163 21.2175C131.784 20.03 129.612 19.2387 126.991 19.2387M137.73 19.8934H136.765C136.404 19.8934 136.128 19.9958 135.921 20.1677C135.697 20.375 135.593 20.6505 135.593 21.0626V22.2501C135.593 22.6634 135.697 22.9378 135.921 23.145C136.128 23.3169 136.404 23.4206 136.765 23.4206H137.73V32.0049C137.73 34.2068 138.334 35.5833 139.454 36.6854C140.488 37.6998 141.833 38.3362 144.177 38.3362H145.642C146.005 38.3362 146.28 38.2338 146.487 38.0619C146.711 37.8547 146.849 37.5791 146.849 37.167V35.6699C146.849 35.2565 146.711 34.9822 146.487 34.775C146.28 34.6031 146.005 34.4994 145.642 34.4994H145.436C144.505 34.4994 143.867 34.2592 143.436 33.8459C142.919 33.3643 142.66 32.6243 142.66 31.6611V23.4206H145.798C146.16 23.4206 146.436 23.3169 146.642 23.145C146.866 22.9378 146.97 22.6634 146.97 22.2501V21.0626C146.97 20.6505 146.866 20.375 146.642 20.1677C146.436 19.9958 146.16 19.8934 145.798 19.8934H142.677V14.2839C142.677 13.8364 142.539 13.5097 142.333 13.2524C142.074 12.9428 141.712 12.7526 141.179 12.7526H139.23C138.695 12.7526 138.334 12.9428 138.075 13.2524C137.868 13.5097 137.73 13.8364 137.73 14.2839V19.8934V19.8934ZM148.28 36.8049C148.28 37.2524 148.417 37.5791 148.625 37.8376C148.883 38.1473 149.245 38.3362 149.779 38.3362H151.83C152.365 38.3362 152.727 38.1473 152.985 37.8376C153.192 37.5791 153.33 37.2524 153.33 36.8049V14.2851C153.33 13.8377 153.192 13.5109 152.985 13.2524C152.727 12.9428 152.365 12.7526 151.83 12.7526H149.779C149.245 12.7526 148.883 12.9428 148.625 13.2524C148.417 13.5109 148.28 13.8377 148.28 14.2851V36.8049ZM104.204 26.7746C104.428 24.658 106.049 23.0755 108.514 23.0755C110.927 23.0755 112.598 24.658 112.823 26.7746H104.204ZM171.998 16.6065C172.359 16.6065 172.636 16.504 172.842 16.3321C173.067 16.1249 173.171 15.8493 173.171 15.4372V13.8364C173.171 13.2171 173.05 12.9074 172.842 12.6843C172.653 12.477 172.342 12.3575 171.998 12.3575C171.722 12.3575 171.447 12.3917 170.982 12.4429L157.225 13.8023C156.83 13.8364 156.64 13.9571 156.502 14.112C156.347 14.2839 156.277 14.5082 156.277 14.8179V15.7116C156.277 16.0566 156.347 16.2114 156.468 16.3492C156.622 16.5211 156.847 16.6065 157.157 16.6065H171.998V16.6065ZM164.397 19.2387C158.415 19.2387 155.053 23.9021 155.053 28.8228C155.053 34.0703 158.657 38.6813 164.431 38.6813C167.31 38.6813 170.136 37.5974 171.756 35.6869C172.463 34.8615 173.032 33.7082 173.032 33.0035C173.032 32.7621 172.98 32.556 172.842 32.4012C172.705 32.2293 172.497 32.1256 172.136 32.1256H169.361C168.809 32.1256 168.43 32.3317 168.154 32.745C167.344 33.9325 166.171 34.5518 164.448 34.5518C161.862 34.5518 160.19 32.5902 160.07 30.4395H172.102C172.636 30.4395 173.015 30.3188 173.273 30.0615C173.566 29.786 173.704 29.3898 173.704 28.6497C173.704 26.3966 172.997 24.057 171.515 22.2672C169.998 20.4603 167.654 19.2387 164.397 19.2387M160.104 26.7746C160.329 24.658 161.949 23.0755 164.414 23.0755C166.827 23.0755 168.498 24.658 168.723 26.7746H160.104Z" fill="white"></path>
<path d="M56.5294 16.8127C52.0673 10.1693 48.1464 7.93082 47.0434 6.87743C45.8317 5.71553 44.9082 4.3988 44.3207 3.76482C43.0137 2.33957 41.3219 0.580264 38.5394 0.580264C35.8534 0.580264 34.0785 2.32738 33.502 3.83675C33.3347 4.26712 33.2027 4.79382 33.083 4.98523C32.8192 5.41683 31.6319 7.43948 31.1396 8.24171H33.3591L32.2793 10.2766C33.5386 10.001 34.4377 9.79741 35.6372 9.79741C36.7047 9.79741 37.4718 10.0498 37.8077 10.7191C38.4319 11.9651 38.4319 15.7349 39.4873 18.5732C40.4706 21.2408 42.8696 23.8511 45.5678 25.8506C45.6032 25.8738 45.6399 25.886 45.6875 25.886C45.8194 25.886 45.9037 25.7909 45.9037 25.6945C45.9037 25.6226 45.8793 25.5751 45.8194 25.5153C43.5646 23.2647 41.7299 20.7751 40.7466 18.0465C39.7743 15.3887 39.9307 11.653 39.0793 9.98882C38.515 8.88789 37.3167 8.60138 36.2125 8.60138C35.3257 8.60138 34.4975 8.7806 34.114 8.86351L35.085 7.22368H33.4421C33.7903 6.61408 34.1494 6.05081 34.3302 5.71553C34.4853 5.4278 34.5464 5.06936 34.7381 4.57924C35.3611 3.01013 36.7402 2.01648 38.5394 2.01648C40.7943 2.01648 42.1135 3.46489 43.4204 4.9133C44.0202 5.58386 45.0035 6.98472 46.1431 8.02592C46.9224 8.74402 48.4102 9.54626 50.7005 11.9054C52.0197 13.2697 53.5551 15.0412 55.1736 17.4113C60.9671 25.8738 64.7683 33.3316 66.8913 39.1496L66.8558 39.174C60.7753 35.0556 55.5095 31.1651 51.2648 26.3651C48.2539 22.9538 45.6399 19.0036 43.3606 13.9634C43.2042 13.6281 43.0735 13.3172 42.9294 12.9942C42.8696 12.8625 42.8097 12.8259 42.7132 12.8259C42.5935 12.8259 42.5092 12.91 42.5092 13.0295C42.5092 13.1612 42.5691 13.4489 42.701 14.0232C43.9127 19.2425 47.2706 23.9231 50.8568 27.8135C54.4309 31.6808 58.4716 35.008 61.794 37.4269L64.3848 44.8238C64.4446 45.0042 64.5167 45.1956 64.5167 45.3749C64.5167 45.5065 64.48 45.6138 64.397 45.6858C64.3249 45.7577 64.2296 45.7943 64.0134 45.7943H63.2341C62.8982 45.7943 62.7651 45.7455 62.6454 45.6504C62.5257 45.5541 62.4426 45.4102 62.3815 45.2432C62.1543 44.5482 60.7863 40.6578 60.5237 39.8677C60.4748 39.7251 60.3905 39.6763 60.2952 39.6763C60.1755 39.6763 60.0913 39.7726 60.0913 39.8799C60.0913 39.9762 60.1267 40.0835 60.1878 40.4188C60.5347 42.1903 60.9426 44.1776 61.11 44.9323C61.1833 45.2785 61.2663 45.6029 61.2663 45.8418C61.2663 46.0564 61.2187 46.1771 61.0391 46.3563L60.2354 47.1707C60.0436 47.3622 59.9349 47.4097 59.7798 47.4097C59.588 47.4097 59.4317 47.278 59.3596 46.9428C58.4484 42.6926 57.0693 37.4269 56.709 35.9651C56.6247 35.6432 56.5648 35.4628 56.3731 35.4628C56.2057 35.4628 56.1459 35.5823 56.1459 35.7261C56.1459 35.8334 56.1691 35.9651 56.1813 36.0614C56.3975 37.5695 57.2733 43.0645 58.2199 48.0803C58.3885 48.9422 58.7122 49.4202 59.4561 49.4202C59.792 49.4202 60.1145 49.2885 60.415 49.002C60.9072 48.5106 61.0501 48.379 61.6389 47.8047C62.0578 47.3975 62.3461 47.2305 63.0656 47.2305H64.8404C65.2606 47.2305 65.4878 47.1232 65.6918 46.9306C65.8835 46.7513 66.0032 46.5002 66.0032 46.1405C66.0032 45.7699 65.908 45.4712 65.776 45.0993C65.3204 43.8789 63.8571 39.7483 63.4247 38.5876L63.4613 38.5632C64.9601 39.7007 67.1429 41.1491 68.103 41.1491C68.4022 41.1491 68.583 41.0174 68.583 40.5505C68.583 38.3486 64.9125 29.2863 56.5294 16.8127" fill="white"></path>
<path d="M15.3573 2.90259C15.609 2.35151 16.1611 1.96868 16.8207 1.96868C17.7197 1.96868 18.4391 2.66362 18.4391 3.58534C18.4391 4.12301 18.1875 4.59118 17.7918 4.87769C17.876 5.1898 17.9359 5.46413 17.9359 5.72747C17.9359 6.73331 17.3361 7.43923 16.2331 7.81108C16.089 8.42068 15.8252 8.97176 15.3928 9.37897C14.6733 10.0727 13.9416 10.0727 13.9416 10.3604C13.9416 10.5165 14.0504 10.6116 14.3496 10.6116C15.681 10.6116 16.988 9.87031 17.1444 8.63648C18.4159 8.2061 19.183 6.92473 19.183 5.90791C19.183 5.64335 19.1586 5.41658 19.0511 5.202C19.3992 4.8655 19.8072 4.29126 19.8072 3.44147C19.8072 2.69898 19.4823 1.94552 18.907 1.39444C18.4037 0.9031 17.6953 0.580013 16.8683 0.580013C15.6688 0.580013 14.8895 1.22741 14.4461 1.86139C13.1379 1.86139 11.4474 3.3098 11.4474 5.38122H11.2678C11.1469 4.66311 10.4042 4.18275 9.78005 4.14739C9.2768 2.63924 8.13715 1.34689 6.26584 1.34689C6.05086 1.34689 5.78702 1.35908 5.5586 1.39444C5.00771 0.890908 4.39575 0.580013 3.54437 0.580013C1.91247 0.580013 0.581055 1.88577 0.581055 3.53657C0.581055 4.56679 1.04888 5.27271 1.9369 5.89572C1.9369 5.89572 1.92469 6.0274 1.92469 6.08714C1.92469 7.40387 3.36359 9.4631 5.49875 9.4631C5.49875 9.79716 5.91894 10.2531 6.38677 10.336V10.5043H6.20599C3.26832 10.5043 2.02118 11.9173 2.02118 12.8622C1.14538 13.2219 0.581055 14.1912 0.581055 15.0885C0.581055 16.8722 1.88926 18.1414 3.61644 18.1414C4.19176 18.1414 4.77929 17.9146 5.18727 17.6025C5.48653 17.7098 5.87008 17.7695 6.26584 17.7695C7.09401 17.7695 8.01745 17.483 8.66483 16.5369C8.76133 16.5491 8.84439 16.5491 8.94089 16.5491C9.99625 16.5491 10.9075 15.8541 11.3875 14.9446C11.5072 14.7178 11.5549 14.5386 11.5549 14.4057C11.5549 14.2753 11.495 14.1668 11.3631 14.1668C11.1957 14.1668 11.1713 14.3228 10.8721 14.5984C10.2002 15.2092 9.16809 15.436 8.11272 15.436C7.59726 16.1906 6.96209 16.5857 6.23042 16.5857C5.69052 16.5857 5.27155 16.4418 4.83915 16.1541C4.49102 16.5369 4.05984 16.6929 3.63965 16.6929C2.693 16.6929 2.02118 16.0346 2.02118 15.0763C2.02118 14.4057 2.45237 13.8083 3.05212 13.5803C3.15961 12.3953 4.43117 11.593 6.01421 11.593C6.2182 11.593 6.42219 11.6052 6.63839 11.6296C6.8778 11.2468 7.45312 10.8396 8.26907 10.7311C8.43764 10.7079 8.56834 10.6957 8.66483 10.6482C8.76133 10.5994 8.80897 10.5043 8.80897 10.3958C8.80897 10.3007 8.77232 10.2166 8.67705 10.1568C8.59277 10.1093 8.44863 10.0861 8.28129 10.0495C7.52519 9.90567 6.62618 9.43871 6.17056 8.3012C4.3591 8.3012 3.02769 6.85279 3.02769 5.22516V5.11787C2.42794 4.87769 2.02118 4.30345 2.02118 3.6207C2.02118 2.72336 2.72842 2.00526 3.62744 2.00526C4.16733 2.00526 4.63516 2.2686 4.93564 2.66362C5.18727 2.59169 5.47432 2.56731 5.75037 2.56731C7.09401 2.56731 8.53291 3.41709 8.80897 5.0691C10.5361 5.22516 10.9441 6.68576 11.0516 7.29658C11.1115 7.60748 11.1591 7.87082 11.3631 7.87082C11.5793 7.87082 11.6269 7.63064 11.699 7.30755C11.8309 6.69795 12.0593 6.20662 12.515 5.82379C12.515 4.25468 13.69 2.90259 15.3573 2.90259Z" fill="white"></path>
<path d="M18.847 12.2874C18.2827 13.0896 17.876 13.4846 16.5922 14.9928C14.9017 16.9923 14.0136 18.6089 12.5381 22.1995C12.7787 22.1751 13.1268 22.1519 13.5104 22.1519C13.7022 22.1519 13.8573 22.1519 14.1101 22.1629L14.2897 21.7801C15.1179 20.0086 16.2319 17.6141 17.7917 15.7706L18.3316 15.1366C19.9378 13.2579 20.9333 12.1435 21.5575 9.58197C21.7737 8.67245 21.9533 7.85924 22.5652 7.27159C23.1161 6.74489 23.8124 6.51812 24.5196 6.51812C25.1194 6.51812 25.564 6.66199 26.2114 6.93631C26.7989 7.18746 27.0139 7.23623 27.6381 7.23623C27.8543 7.23623 28.0094 7.22404 28.1535 7.21185L27.3144 8.33717L28.454 9.1394C27.0261 9.55759 26.2712 10.9353 26.0184 11.5693C25.9707 11.7009 25.9475 11.7851 25.9475 11.8692C25.9475 11.9655 25.9952 12.0606 26.1393 12.0606C26.2944 12.0606 26.4141 11.9411 26.6181 11.7009C27.3144 10.8633 27.8665 10.2879 30.4316 9.48687L28.6214 8.12137L29.9882 6.1231H28.7056C27.8897 6.1231 27.3498 6.11091 26.6426 5.78782C25.6825 5.34525 25.1914 5.15384 24.3401 5.15384C23.2969 5.15384 22.349 5.52448 21.5697 6.24258C20.6695 7.06798 20.3934 8.17014 20.071 9.37958C19.8181 10.3123 19.5189 11.3425 18.847 12.2874Z" fill="white"></path>
<path d="M21.6057 20.4395C20.9217 21.3612 19.9861 22.5694 19.2666 23.8508C19.495 23.9593 20.2511 24.3665 20.515 24.5092C21.3419 23.2644 22.4938 21.733 23.2486 20.5711C23.9327 19.5178 24.2087 19.063 24.2564 17.6499C24.2686 17.411 24.2686 17.183 24.2918 16.9562C24.3516 16.2259 24.5446 15.4834 25.2397 14.8019C25.7551 14.2862 26.499 14.024 27.2429 14.024C27.9623 14.024 28.3813 14.2264 29.0055 14.2264C29.4489 14.2264 29.7726 14.1191 30.0609 14.0119L30.2893 13.9277L29.7372 15.2457L31.0319 15.7712C30.205 16.2857 28.3935 18.5009 28.3935 21.1222C28.3935 22.0683 28.5377 22.9413 28.7417 23.7191C28.7661 23.8032 28.8137 23.8874 28.9456 23.8874C29.0653 23.8874 29.1496 23.8154 29.1618 23.6838L29.1741 23.4082C29.2095 22.606 29.2693 21.338 29.593 20.2005C30.1329 18.2851 31.584 16.4893 33.0352 15.6273L30.9721 14.73L31.8601 12.5634L30.889 12.767C30.3015 12.8865 29.8691 12.9938 29.3536 12.9938C29.0177 12.9938 28.6342 12.9463 28.1785 12.8378C27.8304 12.7549 27.4579 12.6829 26.9314 12.6829C25.9835 12.6829 24.9636 13.0414 24.2686 13.7119C22.997 14.9214 22.9249 16.2259 22.8407 17.3878C22.7332 18.9313 22.4449 19.3141 21.6057 20.4395Z" fill="white"></path>
<path d="M52.3799 21.1696C52.2957 21.0623 52.2236 21.0135 52.1283 21.0135C51.9842 21.0135 51.9121 21.1098 51.9121 21.2171C51.9121 21.3854 52.0318 21.589 52.3323 22.0925C53.2435 23.636 54.371 25.1917 55.7622 26.6535C57.261 28.2446 59.0236 29.7283 60.9071 31.0573L61.4946 31.4645C61.5789 31.5254 61.6388 31.5608 61.7109 31.5608C61.8306 31.5608 61.9148 31.4413 61.9148 31.345C61.9148 31.2853 61.8904 31.2243 61.8183 31.1646C60.068 29.5735 58.1844 27.6338 56.4218 25.7672C55.0416 24.2944 53.6271 22.7387 52.3799 21.1696Z" fill="white"></path>
<path d="M13.7857 15.7471C13.9652 15.4484 14.5051 14.7181 14.7213 14.4901C13.7979 12.6235 12.2869 10.8398 11.6273 10.1327L11.0752 10.6715C11.7116 11.5933 12.7779 13.3769 13.7857 15.7471Z" fill="white"></path>
<path d="M4.9952 4.93789C4.88649 4.84157 4.86328 4.78183 4.86328 4.7099C4.86328 4.627 4.92313 4.53068 5.05505 4.53068C5.10269 4.53068 5.15033 4.54287 5.2114 4.56726C6.0982 4.9257 6.8543 5.3451 7.52612 5.85961C8.08922 6.28998 8.64133 6.8179 9.18 7.45188L8.67675 8.02612C8.0538 7.5104 6.03835 5.82425 4.9952 4.93789Z" fill="white"></path>
<path d="M13.498 8.948L12.8506 8.55298C13.2696 7.55933 13.7862 6.64981 14.397 5.96706C14.8294 5.47694 15.2374 5.0807 15.693 4.6869C15.8005 4.60277 15.8603 4.53084 15.9678 4.53084C16.0887 4.53084 16.173 4.62716 16.173 4.72225C16.173 4.7698 16.1486 4.82954 16.101 4.90148C15.3693 6.03899 13.9414 8.28963 13.498 8.948Z" fill="white"></path>
<path d="M5.36678 14.5021C5.21043 14.5618 5.13836 14.5984 5.0553 14.5984C4.92338 14.5984 4.8623 14.4899 4.8623 14.4058C4.8623 14.3228 4.89895 14.2753 4.98323 14.2021C6.45756 13.0537 7.75356 12.5989 9.54059 12.299L9.75557 13.0183L5.36678 14.5021Z" fill="white"></path>
<path d="M36.1289 5.2133C36.1289 4.7939 36.3451 4.03921 37.1244 4.03921C37.3883 4.03921 37.6399 4.09896 37.8439 4.19527C38.1321 4.32695 38.3239 4.51836 38.3239 4.72197C38.3239 4.93776 38.1077 5.15356 37.784 5.41691C37.4481 5.69123 37.0169 5.9436 36.6688 5.9436C36.2498 5.9436 36.1289 5.54736 36.1289 5.2133Z" fill="white"></path>
<path d="M23.9561 8.70853C23.9561 8.19403 24.2675 7.63076 24.8673 7.63076C25.1311 7.63076 25.4426 7.73805 25.671 7.95507C25.8029 8.07455 25.8628 8.205 25.8628 8.3379C25.8628 8.62563 25.5867 8.89995 25.263 9.09136C25.0114 9.23523 24.7476 9.33154 24.5204 9.33154C24.1478 9.33154 23.9561 9.10233 23.9561 8.70853Z" fill="white"></path>
<path d="M26.7744 16.0945C26.7744 15.975 26.7866 15.8312 26.8343 15.6873C26.9308 15.3764 27.1335 15.0765 27.638 15.0765C27.8664 15.0765 28.1168 15.1362 28.3208 15.2813C28.5016 15.4008 28.5737 15.5556 28.5737 15.7117C28.5737 16.2262 27.7101 16.8248 27.2777 16.8248C26.9662 16.8248 26.7744 16.5249 26.7744 16.0945Z" fill="white"></path>
<path d="M22.0491 31.201C20.4306 31.201 19.71 30.4354 19.71 29.4661C19.71 27.7653 22.6965 26.1024 25.3825 25.0721L26.0788 25.9707C24.4237 26.6278 21.0902 28.0421 21.0902 29.2625C21.0902 29.6929 21.3419 30.005 22.3484 30.005C24.1 30.005 25.9835 29.154 27.7217 28.3042C27.8536 28.2445 28.0099 28.1848 28.1541 28.1848C28.3813 28.1848 28.5254 28.2567 28.6928 28.4956L28.981 28.8907C26.9546 30.005 24.4237 31.201 22.0491 31.201Z" fill="white"></path>
<path d="M26.5105 31.6565C24.9274 32.5416 23.2845 33.1293 21.8334 33.1293C20.2137 33.1293 18.7748 32.4344 17.5753 30.6263C17.0721 29.8606 16.6763 28.9036 16.1963 28.0538C15.6209 27.0479 14.9968 26.5091 13.906 26.5091C12.9105 26.5091 11.9382 26.9163 10.9072 27.3588L10.9549 27.5868C11.0391 27.9575 11.1833 28.2208 11.5302 28.2208C11.6865 28.2208 11.8429 28.1501 11.9272 28.1257C12.5025 27.9453 12.9215 27.7892 13.5102 27.7892C14.4092 27.7892 14.8404 28.3171 15.4524 29.6095L15.6808 30.0886C15.0566 30.3044 13.5933 30.4117 12.5025 30.4117H11.987L12.0713 30.9262C12.1067 31.142 12.191 31.3212 12.3706 31.4054C12.5855 31.5126 12.8982 31.5248 13.4381 31.5248C14.805 31.5248 15.8005 31.3578 16.3758 31.2127C17.8514 33.4048 19.8778 34.2424 21.8334 34.2424C23.4995 34.2424 25.1913 33.6316 26.8109 32.7465L26.5105 31.6565Z" fill="white"></path>
<path d="M28.1415 32.1951L27.8545 31.093C30.3243 29.7653 32.5792 28.6997 36.1777 28.3522C36.2497 29.7287 36.1533 31.4648 37.1732 31.4648C38.1076 31.4648 40.1463 29.0581 42.4976 26.0418C42.7138 26.2454 43.0607 26.4612 43.3734 26.7002L42.7737 27.478C40.4822 30.4236 38.5278 32.9376 36.9203 32.9376C35.4216 32.9376 34.8573 31.1771 34.8341 29.8604C32.5438 30.0884 30.3842 30.854 28.1415 32.1951Z" fill="white"></path>
<path d="M59.8755 8.16986C58.9398 8.16986 58.676 7.65414 58.676 6.92506C58.676 5.41691 59.6238 3.25039 60.2236 2.01656H58.7712C58.0164 3.47716 55.042 8.15767 53.4346 10.0974L54.358 11.0898C55.2216 10.1328 56.1695 8.50514 57.2004 6.90068H57.3922C57.3922 6.9848 57.3812 7.0799 57.3812 7.16402C57.3812 8.51733 58.0762 9.52195 59.7912 9.52195C60.8465 9.52195 62.5016 8.99526 64.0615 8.46857C65.3562 8.026 66.5435 7.57123 67.1311 7.4042V5.96799C66.4592 6.17037 65.0924 6.69707 63.6767 7.18841C62.1902 7.70291 60.7268 8.16986 59.8755 8.16986Z" fill="white"></path>
<path d="M63.078 12.5149C64.5169 11.9053 67.0955 10.8751 68.5832 10.3362V8.87558C65.5967 9.97774 60.3553 12.1443 56.7812 14.084C56.8777 14.2023 57.5019 15.0764 57.5728 15.1849C59.0837 14.5619 60.4396 14.1547 61.6623 14.1547C63.3785 14.1547 64.7807 14.1547 67.1321 13.6036V12.5027C65.8129 12.7429 64.4094 13.0294 63.4982 13.0294C62.9583 13.0294 62.8019 12.9575 62.8019 12.7782C62.8019 12.6709 62.874 12.599 63.078 12.5149" fill="white"></path>
<path d="M32.351 19.2423L31.7744 20.3445H37.9038L37.4482 19.2423H32.351Z" fill="white"></path>
<path d="M10.2721 25.8144C10.9194 25.8144 11.4471 25.5986 11.9516 25.3962C12.4304 25.2036 12.9105 25.0122 13.5579 25.0122C15.0933 25.0122 16.9878 25.7547 18.6551 26.4606C18.7516 26.4972 18.8591 26.5203 18.9666 26.5203C19.2316 26.5203 19.4356 26.4008 19.5663 26.1497L19.7825 25.7547C17.9479 24.6891 15.0212 23.5516 13.498 23.5516C12.803 23.5516 12.2985 23.732 11.8197 23.9222C11.2798 24.1392 10.812 24.366 10.3197 24.366C9.10921 24.366 6.00298 23.1687 6.00298 22.0081C6.00298 20.6438 10.9439 20.1171 11.4838 20.1171L11.9748 19.0027C8.38975 19.0027 4.11945 20.2597 4.11945 21.9239C4.11945 22.4031 4.3955 22.6421 4.3955 23.0846C4.3955 23.6833 4.11945 24.0905 4.11945 24.761C4.11945 25.2036 4.38329 25.7669 4.69477 26.2582C5.03068 26.7727 5.42644 27.1068 5.42644 27.5384C5.42644 27.8614 5.21145 28.2443 5.21145 28.999C5.21145 30.6144 6.1349 31.5971 7.93292 33.5234L8.29326 33.9062C6.80671 34.4817 4.03517 35.679 3.38778 35.9533C1.14514 36.8872 0.582031 38.0247 0.582031 39.8206C0.582031 40.5143 0.582031 41.3043 0.629669 42.0103H1.06085C1.96109 42.0103 2.06858 41.4726 2.06858 40.9581C2.06858 40.6106 2.05636 40.2156 2.05636 39.784C2.06858 38.7916 2.10522 37.9052 3.71147 37.1871C4.36008 36.8994 7.53716 35.607 9.90073 34.6012C10.5958 34.3013 11.2431 34.0501 11.9626 34.0501C12.7663 34.0501 13.6898 34.3976 14.8416 35.0803C15.8127 35.6546 16.8327 36.4324 17.6364 37.3297L18.6551 36.5519C17.7793 35.5229 16.5688 34.6012 15.3571 33.8831C14.1454 33.165 13.0668 32.7456 12.1556 32.7456C11.7598 32.7456 11.4361 32.8175 11.1601 32.8894C10.8364 32.9735 10.5359 33.0686 10.1524 33.0686C9.70896 33.0686 9.33641 32.9614 8.79651 32.3383C8.59252 32.1116 7.29775 30.6388 7.02169 30.2084C6.88977 30.0048 6.65036 29.5976 6.65036 29.1184C6.65036 28.9148 6.68579 28.6759 6.80671 28.4601C7.92071 29.322 9.30098 29.8487 10.9793 30.0523L10.7521 28.9148C8.3409 28.2809 5.77456 26.1619 5.77456 24.7976C5.77456 24.5099 5.84663 24.3063 5.95534 24.0551C6.88977 24.9171 9.08478 25.8144 10.2721 25.8144Z" fill="white"></path>
<path d="M27.5303 26.0304C29.0412 24.9648 30.5999 24.8453 31.8592 24.8453C32.6153 24.8453 33.5021 24.9526 34.4378 25.0721C35.1939 25.1684 35.8767 25.2403 36.6926 25.2403C38.3355 25.2403 39.9906 24.6417 40.7101 24.3296C40.9141 24.582 41.2622 24.9172 41.5382 25.1562C41.1901 25.372 38.9841 26.568 36.7293 26.568C35.7338 26.568 34.7859 26.4498 33.9699 26.3413C33.2505 26.2462 32.4712 26.162 31.7151 26.162C30.8881 26.162 29.2208 26.401 28.1899 26.8923L27.5303 26.0304Z" fill="white"></path>
<path d="M49.8016 30.3038C48.0024 34.087 45.2675 36.8399 42.4618 38.4322C41.1303 39.1857 39.9308 39.677 37.3413 39.677H31.7396C29.7376 39.677 28.4782 39.9403 27.4949 40.1915C26.4383 40.467 25.7677 40.7414 24.7002 40.7414C23.1171 40.7414 21.6538 39.9635 20.9465 39.2222L22.2657 38.181L21.6061 37.3057C21.2226 37.5824 16.5333 41.0413 15.5488 41.8191L15.4889 41.7838C15.5134 41.5448 15.5134 41.329 15.5134 41.1132C15.5134 38.4797 14.2894 37.8445 12.4316 37.1033L11.1722 37.8445C13.7263 38.6955 14.3615 39.3771 14.3615 41.2802C14.3615 42.7896 13.8216 43.387 13.0423 43.843C12.2386 44.31 11.2431 44.5245 10.3685 44.5245C9.99593 44.5245 9.82859 44.5965 9.69667 44.7281C9.55253 44.872 9.48047 45.0878 9.48047 45.3865V45.8059H9.78095C11.3872 45.8059 12.875 45.5548 14.5057 44.2734L19.8191 40.1318C20.574 40.9937 22.4819 42.191 24.7356 42.191C26.0071 42.191 26.8231 41.8789 27.9982 41.5802C28.9094 41.3522 29.7974 41.1486 31.7396 41.1486H37.3645C40.2435 41.1486 41.6348 40.5499 43.169 39.6892C46.5036 37.8214 49.346 34.6612 50.9535 31.0329C50.5333 30.7707 50.1376 30.5306 49.8016 30.3038Z" fill="white"></path>
<path d="M40.7706 34.8049C42.2217 32.4823 43.5165 30.4231 46.6948 28.7479C46.3588 28.5443 45.88 28.2334 45.6272 28.0652C44.3923 28.604 43.1696 29.6806 42.1264 30.7706C39.7274 33.2602 39.9424 34.6964 37.4127 35.6669C36.7763 35.9058 35.997 36.1692 35.0015 36.3972C34.414 34.5891 32.9396 32.7932 31.3798 32.7932C30.3 32.7932 29.0529 33.3553 27.614 33.9905C25.9234 34.733 24.3758 35.5827 23.8848 35.9058L24.5444 36.7922C25.0476 36.5154 26.4987 35.7973 27.9499 35.1755C29.2092 34.6366 30.3489 34.1941 31.1159 34.1941C32.3509 34.1941 33.1546 35.5949 33.5992 36.719C31.9795 37.1031 29.3167 37.1982 28.5142 37.1982C28.1416 37.1982 28.0097 37.2579 27.8778 37.3664C27.7581 37.4737 27.6616 37.6651 27.6017 37.9285L27.5065 38.3357H28.3688C32.8553 38.3357 37.089 37.6298 39.8105 35.9778C40.1952 36.0863 40.5311 36.157 40.9623 36.157C42.5209 36.157 44.1284 35.3072 45.1361 34.5294C45.4953 34.2538 45.5795 34.0014 45.5795 33.7271C45.5795 33.5954 45.5673 33.476 45.5551 33.3553L45.5075 32.8895C44.0686 34.0258 42.8691 34.8768 41.3825 34.8768C41.1187 34.8768 40.9269 34.8524 40.7706 34.8049Z" fill="white"></path>
</svg>