<svg width="208" height="37" viewBox="0 0 208 37" fill="none" xmlns="http://www.w3.org/2000/svg">
<g clip-path="url(#clip0_2002_2342)">
<path d="M158.209 2.06858V6.18033H162.181C163.916 6.18033 165.056 7.28615 165.705 8.00092C166.225 8.58955 177.665 21.6995 177.94 22.0443C178.214 22.3891 178.214 22.3931 178.214 22.6117V29.1083C178.214 29.4061 178.184 29.7031 178.127 29.9951C178.045 30.1837 177.924 30.3522 177.772 30.4887C177.62 30.6253 177.44 30.7267 177.245 30.786C176.87 30.8336 176.492 30.8575 176.113 30.8575L172.137 30.8525V34.9643H194.442V30.8525H190.245C189.869 30.8544 189.494 30.8302 189.121 30.7802C188.927 30.7216 188.747 30.6204 188.596 30.4839C188.444 30.3474 188.324 30.1788 188.244 29.9902C188.185 29.6982 188.155 29.4012 188.153 29.1033V22.6109C188.128 22.3975 188.181 22.1823 188.302 22.0057L200.678 7.73567C201.814 6.45748 202.405 6.1795 203.894 6.1795H208V2.06775H189.617V6.17128H192.392C192.54 6.16224 192.688 6.19656 192.818 6.27011C192.948 6.34365 193.055 6.45335 193.125 6.58618C193.195 6.71902 193.226 6.8694 193.214 7.01945C193.202 7.16949 193.147 7.31291 193.057 7.43265C192.999 7.51672 185.361 16.5943 185.265 16.6827C185.17 16.771 185.108 16.7497 185.037 16.6531C184.966 16.5563 177.42 7.43267 177.42 7.43267C176.887 6.77255 177.304 6.17129 177.928 6.17129H180.632V2.06777L158.209 2.06858Z" fill="white"></path>
<path d="M103.501 2.0686V6.18035H107.061C109.632 6.18035 109.808 7.62732 109.808 8.88869V28.1327C109.808 29.2847 109.874 30.8656 108.235 30.8656H103.841V34.9733H122.6V30.8656H118.024C116.197 30.8656 116.114 30.0208 116.093 28.2255V11.7391L141.856 34.9733H148.408L148.063 8.73265C148.096 6.81538 148.212 6.17624 150.176 6.17624H154.281V2.0686H135.145V6.17624H139.348C141.278 6.17624 141.602 6.9289 141.627 8.73265L141.856 22.4648L119.492 2.0686H103.501Z" fill="white"></path>
<path d="M19.032 0C15.001 0 10.4208 0.765221 6.55201 2.52273C2.94112 4.15408 2.62206e-05 6.77329 2.62206e-05 11.1166C-0.00546072 13.3911 0.85039 15.5816 2.39202 17.2387C3.43619 18.2141 5.12125 19.8707 9.52252 20.8462C11.4902 21.2666 15.696 21.9435 19.8851 22.3892C24.0743 22.8349 28.1345 23.2303 29.7985 23.6802C31.1213 24.0207 33.3466 24.4833 33.3466 27.006C33.3466 29.5287 31.0048 30.2853 30.5971 30.4493C30.1895 30.6133 27.3769 31.9168 22.3267 31.9168C18.9806 31.8229 15.6649 31.2466 12.48 30.2054C10.5955 29.5243 8.61996 28.6286 6.77707 26.354C6.03315 25.2829 5.62031 24.0128 5.59083 22.7045H1.01481V35.6549H6.09861V33.9016C6.09778 33.7715 6.13131 33.6436 6.1957 33.5309C6.26009 33.4183 6.35301 33.325 6.46493 33.2608C6.57685 33.1965 6.7037 33.1636 6.8324 33.1654C6.96111 33.1672 7.08702 33.2036 7.19714 33.2709C9.59202 34.3241 12.0831 35.138 14.6348 35.7009C17.3055 36.2643 19.0322 36.6723 22.3519 36.6723C25.8548 36.7397 29.3458 36.2415 32.6934 35.1966C34.9163 34.5807 37.0019 33.5401 38.8375 32.1311C39.8699 31.3296 40.7044 30.297 41.2754 29.1145C41.8464 27.932 42.1383 26.6317 42.1281 25.316C42.1458 22.816 41.1914 20.4091 39.4704 18.6133C38.5133 17.6748 37.4046 16.9086 36.192 16.3476C34.8885 15.7523 33.5353 15.2752 32.1482 14.922C29.5108 14.2703 23.5875 13.4547 20.7545 13.1688C17.7843 12.8576 12.6298 12.4242 10.5706 11.781C9.94664 11.5833 8.67346 10.9742 8.67346 9.48157C8.67346 8.41782 9.25593 7.5179 10.4041 6.79051C12.2303 5.63425 15.9162 4.91487 19.76 4.91487C23.4807 4.86943 27.1708 5.59787 30.6012 7.05493C31.5227 7.4609 32.3893 7.98383 33.18 8.61111C34.4691 9.72397 35.3619 11.2332 35.7216 12.9076H39.828V1.63583H35.2519V2.94318C35.2519 3.36364 34.836 3.91882 34.0039 3.46054C31.9406 2.37577 26.1414 0.0294298 19.032 0V0Z" fill="white"></path>
<path d="M74.1021 0C66.8928 0 59.238 2.52242 54.9116 6.49571C53.2623 8.01347 51.9457 9.86342 51.0465 11.9265C50.1473 13.9896 49.6853 16.2201 49.6905 18.4745C49.6648 20.7383 50.1172 22.9815 51.0175 25.0544C51.9179 27.1273 53.2455 28.9822 54.9116 30.4953C59.5708 34.7292 66.56 37 74.1021 37C81.6566 37 88.7952 34.7545 93.3421 30.4953C94.9588 28.9467 96.2486 27.0833 97.1336 25.0174C98.0187 22.9514 98.4806 20.7258 98.4917 18.4745C98.514 16.2256 98.0669 13.9972 97.1796 11.9347C96.2923 9.8722 94.9847 8.02197 93.3421 6.50473C88.4624 2.03109 82.0768 0 74.1021 0V0ZM74.1021 4.80977C78.0457 4.80977 81.8437 6.24393 84.4021 8.78768C86.8773 11.2515 88.1705 14.7329 88.1705 18.4581C88.1705 22.36 86.9938 25.5218 84.4021 28.1286C81.8105 30.7354 78.0998 32.1311 74.1021 32.1311C70.1334 32.1311 66.3433 30.706 63.7849 28.1286C62.5613 26.8454 61.6007 25.3305 60.9582 23.671C60.3156 22.0114 60.0039 20.2398 60.0409 18.4581C60.0409 14.7497 61.3181 11.2557 63.7849 8.78768C66.3433 6.23131 70.1584 4.80977 74.1021 4.80977Z" fill="white"></path>
</g>
<defs>
<clipPath id="clip0_2002_2342">
<rect width="208" height="37" fill="white"></rect>
</clipPath>
</defs>
</svg>