<svg width="211" height="50" viewBox="0 0 211 50" fill="none" xmlns="http://www.w3.org/2000/svg">
<g clip-path="url(#clip0_2002_2293)">
<path d="M184.819 16.8321C185.991 16.8321 186.955 16.2229 187.085 15.4359L188.242 2.35444C188.242 1.06146 186.727 0 184.823 0C182.92 0 181.407 1.06145 181.407 2.35467L182.563 15.4359C182.69 16.2227 183.654 16.8321 184.823 16.8321H184.819M177.749 20.918C178.337 19.9046 178.292 18.7657 177.673 18.2597L166.921 10.7173C165.803 10.0698 164.127 10.8491 163.175 12.4989C162.221 14.1467 162.39 15.987 163.505 16.6346L175.411 22.1781C176.155 22.454 177.17 21.923 177.753 20.9103L177.749 20.918M191.895 20.911C192.482 21.9237 193.492 22.4549 194.237 22.1788L206.143 16.6353C207.265 15.9879 207.424 14.1474 206.478 12.4997C205.522 10.8515 203.843 10.0705 202.728 10.718L191.975 18.2604C191.361 18.7657 191.315 19.9056 191.899 20.9187L191.895 20.911M184.819 33.1728C185.991 33.1728 186.955 33.7769 187.085 34.5645L188.242 47.6442C188.242 48.9411 186.727 50.0002 184.823 50.0002C182.92 50.0002 181.407 48.9411 181.407 47.6442L182.563 34.5645C182.69 33.7769 183.654 33.1728 184.823 33.1728H184.819M191.895 29.086C192.482 28.0705 193.492 27.544 194.237 27.8231L206.143 33.3628C207.265 34.0109 207.424 35.8531 206.478 37.5022C205.522 39.145 203.843 39.9281 202.728 39.2816L191.975 31.7461C191.361 31.2369 191.315 30.0963 191.899 29.0839H191.895M177.749 29.0846C178.337 30.0963 178.292 31.2369 177.673 31.7471L166.921 39.2823C165.803 39.9288 164.127 39.1457 163.175 37.5029C162.221 35.8538 162.39 34.0116 163.505 33.3635L175.411 27.8238C176.155 27.5447 177.17 28.0712 177.753 29.0869H177.749" fill="white"></path>
<path d="M116.997 31.7223C116.997 32.1238 116.961 32.5378 116.851 32.9014C116.395 34.4117 114.831 35.6888 112.875 35.6888C111.244 35.6888 109.948 34.7622 109.948 32.8053C109.948 29.8102 113.245 28.983 116.998 29.0038L116.997 31.7221V31.7223ZM122.883 26.5028C122.883 21.564 120.772 17.2183 113.642 17.2183C109.982 17.2183 107.077 18.2464 105.491 19.1627L106.652 23.1331C108.102 22.2182 110.411 21.4609 112.597 21.4609C116.214 21.4509 116.806 23.5091 116.806 24.8264V25.1382C108.922 25.1265 103.938 27.8565 103.938 33.4177C103.938 36.8158 106.476 39.9986 110.889 39.9986C113.6 39.9986 115.871 38.9163 117.23 37.1811H117.364C117.364 37.1811 118.264 40.9485 123.228 39.507C122.969 37.9403 122.884 36.2678 122.884 34.2567L122.883 26.5028M0.0400391 10.4925C0.0400391 10.4925 5.19212 31.6035 6.01482 35.0297C6.97451 39.0288 8.70417 40.5011 13.6887 39.507L16.9055 26.419C17.7212 23.1665 18.2671 20.8475 18.7927 17.5423H18.8842C19.2531 20.8825 19.7766 23.1765 20.4479 26.4298C20.4479 26.4298 21.7567 32.3719 22.4282 35.4918C23.1003 38.6108 24.9712 40.5778 29.8542 39.507L37.5196 10.4916H31.3325L28.7143 23.037C28.0104 26.6872 27.3723 29.5427 26.8798 32.8813H26.7923C26.3449 29.5721 25.7752 26.8331 25.0603 23.2757L22.3367 10.4916H15.8891L12.974 22.9534C12.149 26.7413 11.3753 29.7987 10.8852 33.0263H10.796C10.2928 29.9871 9.62302 26.1429 8.89811 22.478C8.89811 22.478 7.16753 13.5642 6.55885 10.4916L0.0400391 10.4925M49.2232 31.7223C49.2232 32.1238 49.1875 32.5378 49.0759 32.9014C48.6208 34.4117 47.0562 35.6888 45.0999 35.6888C43.4685 35.6888 42.1748 34.7622 42.1748 32.8053C42.1748 29.8102 45.4705 28.983 49.2239 29.0038L49.2232 31.7221V31.7223ZM55.1086 26.5028C55.1086 21.564 52.9983 17.2183 45.8691 17.2183C42.2079 17.2183 39.3006 18.2464 37.7159 19.1627L38.8758 23.1331C40.3247 22.2182 42.6344 21.4609 44.8207 21.4609C48.4402 21.4509 49.0325 23.5091 49.0325 24.8264V25.1382C41.1451 25.1265 36.1636 27.8565 36.1636 33.4177C36.1636 36.8158 38.7006 39.9986 43.1098 39.9986C45.8248 39.9986 48.0943 38.9163 49.4549 37.1811H49.5875C49.5875 37.1811 50.4893 40.9485 55.4526 39.507C55.193 37.9403 55.1086 36.2678 55.1086 34.2567V26.5028M64.931 33.3479V10.4925H59.0379V39.508H64.931V33.3479ZM142.023 10.4925V31.8967C142.023 34.8491 142.58 36.9153 143.767 38.1798C144.807 39.2853 146.515 40.0009 148.565 40.0009C150.307 40.0009 152.021 39.6683 152.83 39.3684L152.754 34.7646C152.152 34.9116 151.461 35.0306 150.515 35.0306C148.507 35.0306 147.836 33.7442 147.836 31.095V22.9053H152.968V17.353H147.836V10.4925H142.023M126.812 17.7106V39.508H132.891V28.3473C132.891 27.744 132.928 27.2184 133.023 26.7376C133.473 24.3986 135.261 22.9053 137.829 22.9053C138.533 22.9053 139.037 22.9819 139.583 23.0594V17.353C139.124 17.2617 138.814 17.219 138.244 17.219C135.975 17.219 133.394 18.6829 132.311 21.8229H132.147V17.7106H126.812ZM69.0573 17.7106V39.508H74.9801V26.7259C74.9801 26.1261 75.0505 25.4918 75.2583 24.9419C75.7491 23.655 76.9468 22.1478 78.8581 22.1478C81.2491 22.1478 82.3657 24.1682 82.3657 27.0842V39.5063H88.2837V26.5686C88.2837 25.9964 88.3619 25.3065 88.5311 24.8019C89.017 23.3371 90.3072 22.1461 92.0842 22.1461C94.5071 22.1461 95.67 24.1311 95.67 27.5633V39.5056H101.592V26.6669C101.592 19.8969 98.1542 17.2169 94.273 17.2169C92.5557 17.2169 91.1988 17.6471 89.9716 18.3991C88.9412 19.0339 88.017 19.9334 87.2106 21.1157H87.1231C86.1872 18.7666 83.9852 17.2181 81.1156 17.2181C77.4292 17.2181 75.7724 19.0869 74.7674 20.6716H74.6792V17.7099H69.0573" fill="white"></path>
<path d="M209.129 38.4482H209.218C209.337 38.4482 209.413 38.3992 209.413 38.3264C209.413 38.2435 209.341 38.1985 209.231 38.1985C209.193 38.1985 209.155 38.2062 209.129 38.2062V38.4503V38.4479L209.129 38.4482ZM209.115 39.0359H208.8V38.0101C208.872 37.9961 209.038 37.9711 209.252 37.9711C209.483 37.9711 209.587 38.0038 209.663 38.0552C209.727 38.1 209.774 38.1765 209.774 38.2799C209.774 38.3852 209.677 38.4743 209.534 38.5133V38.5264C209.651 38.5574 209.714 38.6419 209.748 38.7901C209.78 38.9381 209.799 38.9985 209.819 39.0366H209.462C209.431 38.9985 209.413 38.9077 209.392 38.8172C209.372 38.7133 209.323 38.6613 209.218 38.6613H209.114L209.115 39.0359V39.0359ZM209.245 37.6759C208.793 37.6759 208.452 38.0442 208.452 38.5138C208.452 38.9712 208.794 39.3444 209.258 39.3444C209.723 39.3521 210.065 38.9714 210.065 38.5063C210.065 38.0433 209.723 37.6759 209.252 37.6759H209.245ZM209.266 37.3975C209.896 37.3975 210.398 37.8936 210.398 38.5061C210.398 39.1257 209.896 39.6226 209.257 39.6226C208.618 39.6226 208.109 39.125 208.109 38.5063C208.109 37.8936 208.619 37.3977 209.257 37.3977H209.264" fill="white"></path>
</g>
<defs>
<clipPath id="clip0_2002_2293">
<rect width="211" height="50.0002" fill="white"></rect>
</clipPath>
</defs>
</svg>