<svg width="753" height="112" viewBox="0 0 753 112" fill="none" xmlns="http://www.w3.org/2000/svg">
<path d="M683.453 21.2414H691.887L665.998 71.7142H657.65L631.678 21.2414H640.784L662.034 62.7011L683.453 21.2414Z" fill="url(#paint0_linear_1_2)"/>
<path d="M626.086 71.7142L619.593 59.0958H588.223L581.73 71.7142H573.045L599.775 21.2414H608.124L634.94 71.7142H626.086ZM591.175 53.3276H616.641L603.908 28.5959L591.175 53.3276Z" fill="url(#paint1_linear_1_2)"/>
<path d="M511.277 65.441H545.683V71.7142H502.845V21.2414H544.502V27.5143H511.277V43.0167H540.877V49.1456H511.277V65.441Z" fill="#2F2F2F"/>
<path d="M476.744 21.2414H485.176V71.7142H478.261L442.845 34.0758V71.7142H434.413V21.2414H441.328L476.744 58.8796V21.2414Z" fill="#2F2F2F"/>
<path d="M408.308 71.7142V21.2414H416.74V71.7142H408.308Z" fill="#2F2F2F"/>
<path d="M358.24 71.7142V21.2414H366.672V65.441H398.631V71.7142H358.24Z" fill="#2F2F2F"/>
<path d="M287.534 65.441H321.939V71.7142H279.102V21.2414H320.759V27.5143H287.534V43.0167H317.133V49.1456H287.534V65.441Z" fill="#2F2F2F"/>
<path d="M261.386 71.7142H253.291L253.207 34.9411L231.872 65.5853H227.994L206.659 35.1574V71.7142H198.564V21.2414H205.478L230.102 56.7164L254.388 21.2414H261.303L261.386 71.7142Z" fill="#2F2F2F"/>
<path d="M172.459 71.7142V21.2414H180.892V71.7142H172.459Z" fill="#2F2F2F"/>
<path d="M159.847 71.7142H150.656L137.923 56.2118C136.742 56.2839 135.477 56.3559 134.212 56.3559H119.624V71.7142H111.191V21.2414H134.212C149.56 21.2414 158.835 27.8749 158.835 38.8346C158.835 46.6219 154.113 52.2461 145.849 54.7697L159.847 71.7142ZM133.959 50.2272C144.753 50.2272 150.403 46.0451 150.403 38.8346C150.403 31.6244 144.753 27.5143 133.959 27.5143H119.624V50.2272H133.959Z" fill="#2F2F2F"/>
<path d="M74.1798 21.2414C89.5271 21.2414 98.8029 27.8749 98.8029 38.8346C98.8029 49.7944 89.5271 56.4281 74.1798 56.4281H59.5913V71.7142H51.1589V21.2414H74.1798ZM73.9268 50.155C84.7204 50.155 90.3703 46.0451 90.3703 38.8346C90.3703 31.6244 84.7204 27.5143 73.9268 27.5143H59.5913V50.155H73.9268Z" fill="#2F2F2F"/>
<g filter="url(#filter0_f_1_2)">
<path d="M732.535 91.6828C450.979 95.5211 293.037 95.474 11.4764 91.6828C293.072 88.6841 450.948 88.6511 732.535 91.6828Z" fill="url(#paint2_linear_1_2)"/>
</g>
<defs>
<filter id="filter0_f_1_2" x="10.5481" y="88.493" width="722.916" height="6.97922" filterUnits="userSpaceOnUse" color-interpolation-filters="sRGB">
<feFlood flood-opacity="0" result="BackgroundImageFix"/>
<feBlend mode="normal" in="SourceGraphic" in2="BackgroundImageFix" result="shape"/>
<feGaussianBlur stdDeviation="0.464174" result="effect1_foregroundBlur_1_2"/>
</filter>
<linearGradient id="paint0_linear_1_2" x1="661.782" y1="21.2414" x2="661.782" y2="71.7142" gradientUnits="userSpaceOnUse">
<stop stop-color="#FF3467"/>
<stop offset="1" stop-color="#FF593F"/>
</linearGradient>
<linearGradient id="paint1_linear_1_2" x1="603.992" y1="21.2414" x2="603.992" y2="71.7142" gradientUnits="userSpaceOnUse">
<stop stop-color="#FF3467"/>
<stop offset="1" stop-color="#FF593F"/>
</linearGradient>
<linearGradient id="paint2_linear_1_2" x1="372.006" y1="89.4214" x2="372.006" y2="94.5439" gradientUnits="userSpaceOnUse">
<stop stop-color="#FF3467"/>
<stop offset="1" stop-color="#FF593F"/>
</linearGradient>
</defs>
</svg>
