<svg width="389" height="58" viewBox="0 0 389 58" fill="none" xmlns="http://www.w3.org/2000/svg">
<path d="M353.072 11H357.429L344.055 37.1377H339.742L326.325 11H331.029L342.007 32.4702L353.072 11Z" fill="#2F946C"/>
<path d="M323.436 37.1377L320.082 30.6032H303.876L300.522 37.1377H296.035L309.844 11H314.157L328.01 37.1377H323.436ZM305.401 27.6161H318.557L311.979 14.8086L305.401 27.6161Z" fill="#2F946C"/>
<path d="M264.126 33.8891H281.9V37.1377H259.77V11H281.29V14.2485H264.126V22.2765H279.417V25.4504H264.126V33.8891Z" fill="white"/>
<path d="M246.286 11H250.642V37.1377H247.07L228.774 17.6464V37.1377H224.418V11H227.99L246.286 30.4912V11Z" fill="white"/>
<path d="M210.932 37.1377V11H215.288V37.1377H210.932Z" fill="white"/>
<path d="M185.067 37.1377V11H189.423V33.8891H205.933V37.1377H185.067Z" fill="white"/>
<path d="M148.54 33.8891H166.314V37.1377H144.184V11H165.704V14.2485H148.54V22.2765H163.831V25.4504H148.54V33.8891Z" fill="white"/>
<path d="M135.032 37.1377H130.85L130.807 18.0945L119.785 33.9638H117.782L106.76 18.2065V37.1377H102.578V11H106.15L118.871 29.371L131.417 11H134.989L135.032 37.1377Z" fill="white"/>
<path d="M89.0923 37.1377V11H93.4486V37.1377H89.0923Z" fill="white"/>
<path d="M82.5771 37.1377H77.8288L71.2508 29.1097C70.6409 29.147 69.9875 29.1843 69.334 29.1843H61.7977V37.1377H57.4414V11H69.334C77.2625 11 82.0544 14.4352 82.0544 20.1108C82.0544 24.1435 79.6149 27.056 75.3457 28.3629L82.5771 37.1377ZM69.2034 26.0105C74.7794 26.0105 77.6981 23.8448 77.6981 20.1108C77.6981 16.3769 74.7794 14.2485 69.2034 14.2485H61.7977V26.0105H69.2034Z" fill="white"/>
<path d="M38.3213 11C46.2497 11 51.0416 14.4352 51.0416 20.1108C51.0416 25.7864 46.2497 29.2217 38.3213 29.2217H30.7849V37.1377H26.4287V11H38.3213ZM38.1906 25.9731C43.7666 25.9731 46.6853 23.8448 46.6853 20.1108C46.6853 16.3769 43.7666 14.2485 38.1906 14.2485H30.7849V25.9731H38.1906Z" fill="white"/>
<g filter="url(#filter0_f_6226_967)">
<path d="M378.428 47.4786C232.976 49.4663 151.383 49.4419 5.92871 47.4786C151.401 45.9257 232.96 45.9086 378.428 47.4786Z" fill="url(#paint0_linear_6226_967)"/>
</g>
<defs>
<filter id="filter0_f_6226_967" x="5.00036" y="45.3791" width="374.356" height="4.50941" filterUnits="userSpaceOnUse" color-interpolation-filters="sRGB">
<feFlood flood-opacity="0" result="BackgroundImageFix"/>
<feBlend mode="normal" in="SourceGraphic" in2="BackgroundImageFix" result="shape"/>
<feGaussianBlur stdDeviation="0.464174" result="effect1_foregroundBlur_6226_967"/>
</filter>
<linearGradient id="paint0_linear_6226_967" x1="5.92871" y1="47.6339" x2="378.428" y2="47.6339" gradientUnits="userSpaceOnUse">
<stop stop-color="#030D0C"/>
<stop offset="0.254808" stop-color="#278562"/>
<stop offset="0.509615" stop-color="#6BFFC6"/>
<stop offset="0.793269" stop-color="#227456"/>
<stop offset="1" stop-color="#041210"/>
</linearGradient>
</defs>
</svg>
