<svg width="375" height="68" viewBox="0 0 375 68" fill="none" xmlns="http://www.w3.org/2000/svg">
<path d="M348.072 0H352.429L339.055 26.1377H334.742L321.325 0H326.029L337.007 21.4702L348.072 0Z" fill="#2F946C"/>
<path d="M318.436 26.1377L315.082 19.6032H298.876L295.522 26.1377H291.035L304.844 0H309.157L323.01 26.1377H318.436ZM300.401 16.6161H313.557L306.979 3.80863L300.401 16.6161Z" fill="#2F946C"/>
<path d="M259.126 22.8891H276.9V26.1377H254.77V0H276.29V3.24854H259.126V11.2765H274.417V14.4504H259.126V22.8891Z" fill="white"/>
<path d="M241.286 0H245.642V26.1377H242.07L223.774 6.64643V26.1377H219.418V0H222.99L241.286 19.4912V0Z" fill="white"/>
<path d="M205.932 26.1377V0H210.288V26.1377H205.932Z" fill="white"/>
<path d="M180.067 26.1377V0H184.423V22.8891H200.933V26.1377H180.067Z" fill="white"/>
<path d="M143.54 22.8891H161.314V26.1377H139.184V0H160.704V3.24854H143.54V11.2765H158.831V14.4504H143.54V22.8891Z" fill="white"/>
<path d="M130.032 26.1377H125.85L125.807 7.09451L114.785 22.9638H112.782L101.76 7.20653V26.1377H97.5781V0H101.15L113.871 18.371L126.417 0H129.989L130.032 26.1377Z" fill="white"/>
<path d="M84.0925 26.1377V0H88.4488V26.1377H84.0925Z" fill="white"/>
<path d="M77.5771 26.1377H72.8288L66.2508 18.1097C65.6409 18.147 64.9875 18.1843 64.334 18.1843H56.7977V26.1377H52.4414V0H64.334C72.2625 0 77.0544 3.43524 77.0544 9.11084C77.0544 13.1435 74.6149 16.056 70.3457 17.3629L77.5771 26.1377ZM64.2034 15.0105C69.7794 15.0105 72.6981 12.8448 72.6981 9.11084C72.6981 5.37689 69.7794 3.24854 64.2034 3.24854H56.7977V15.0105H64.2034Z" fill="white"/>
<path d="M33.3211 0C41.2495 0 46.0414 3.43524 46.0414 9.11084C46.0414 14.7864 41.2495 18.2217 33.3211 18.2217H25.7847V26.1377H21.4285V0H33.3211ZM33.1904 14.9731C38.7664 14.9731 41.6851 12.8448 41.6851 9.11084C41.6851 5.37689 38.7664 3.24854 33.1904 3.24854H25.7847V14.9731H33.1904Z" fill="white"/>
<g filter="url(#filter0_f_12887_256908)">
<path d="M373.428 36.4786C227.976 38.4663 146.383 38.4419 0.928467 36.4786C146.401 34.9257 227.96 34.9086 373.428 36.4786Z" fill="url(#paint0_linear_12887_256908)"/>
</g>
<path d="M339.126 63.0877C338.117 63.0877 337.343 62.81 336.802 62.2545C336.276 61.6991 336.012 60.939 336.012 59.9743V49.0558H337.109V59.8647C337.109 60.5955 337.291 61.1583 337.657 61.5529C338.022 61.9476 338.548 62.1449 339.235 62.1449C339.952 62.1449 340.544 61.933 341.011 61.5091L341.472 62.2764C341.179 62.5542 340.821 62.7588 340.397 62.8903C339.988 63.0219 339.564 63.0877 339.126 63.0877ZM333.908 52.498V51.5552H340.748V52.498H333.908Z" fill="white"/>
<path d="M328.042 63.0877C326.931 63.0877 325.937 62.8392 325.06 62.3422C324.198 61.8453 323.511 61.1583 322.999 60.2813C322.502 59.4043 322.254 58.4031 322.254 57.2776C322.254 56.1375 322.502 55.129 322.999 54.252C323.511 53.375 324.198 52.6953 325.06 52.213C325.937 51.716 326.931 51.4675 328.042 51.4675C328.963 51.4675 329.796 51.6429 330.541 51.9937C331.301 52.3445 331.915 52.8707 332.383 53.5723L331.572 54.1643C331.162 53.5796 330.651 53.1484 330.037 52.8707C329.423 52.593 328.758 52.4541 328.042 52.4541C327.15 52.4541 326.346 52.6588 325.63 53.068C324.929 53.4627 324.373 54.0254 323.964 54.7563C323.569 55.4725 323.372 56.3129 323.372 57.2776C323.372 58.2423 323.569 59.0901 323.964 59.8209C324.373 60.5371 324.929 61.0998 325.63 61.5091C326.346 61.9037 327.15 62.1011 328.042 62.1011C328.758 62.1011 329.423 61.9622 330.037 61.6845C330.651 61.4068 331.162 60.9756 331.572 60.3909L332.383 60.9829C331.915 61.6845 331.301 62.2107 330.541 62.5615C329.796 62.9123 328.963 63.0877 328.042 63.0877Z" fill="white"/>
<path d="M315.069 63.0877C313.915 63.0877 312.892 62.8392 312 62.3422C311.123 61.8453 310.429 61.1583 309.917 60.2813C309.42 59.4043 309.172 58.4031 309.172 57.2776C309.172 56.1375 309.406 55.1363 309.873 54.2739C310.356 53.3969 311.013 52.7099 311.846 52.213C312.68 51.716 313.615 51.4675 314.653 51.4675C315.691 51.4675 316.619 51.7087 317.437 52.191C318.27 52.6734 318.921 53.3531 319.389 54.2301C319.871 55.0924 320.112 56.0937 320.112 57.2338C320.112 57.2776 320.105 57.3288 320.09 57.3872C320.09 57.4311 320.09 57.4822 320.09 57.5407H309.983V56.6856H319.498L319.06 57.1022C319.074 56.2106 318.884 55.414 318.49 54.7124C318.11 53.9962 317.591 53.4408 316.933 53.0461C316.275 52.6369 315.515 52.4322 314.653 52.4322C313.805 52.4322 313.045 52.6369 312.373 53.0461C311.715 53.4408 311.196 53.9962 310.816 54.7124C310.436 55.414 310.246 56.2179 310.246 57.1241V57.3215C310.246 58.2569 310.451 59.0901 310.86 59.8209C311.284 60.5371 311.861 61.0998 312.592 61.5091C313.323 61.9037 314.156 62.1011 315.091 62.1011C315.822 62.1011 316.502 61.9695 317.13 61.7064C317.773 61.4433 318.314 61.0414 318.753 60.5006L319.389 61.2241C318.892 61.838 318.263 62.3057 317.503 62.6273C316.758 62.9342 315.946 63.0877 315.069 63.0877Z" fill="white"/>
<path d="M303.639 63V49.8013C303.639 48.8512 303.91 48.0911 304.45 47.5211C305.006 46.9364 305.795 46.6441 306.818 46.6441C307.242 46.6441 307.659 46.7099 308.068 46.8414C308.477 46.9584 308.813 47.1411 309.077 47.3895L308.638 48.2227C308.419 48.0034 308.156 47.8427 307.849 47.7403C307.542 47.638 307.213 47.5869 306.862 47.5869C306.161 47.5869 305.627 47.7842 305.262 48.1788C304.896 48.5589 304.714 49.1289 304.714 49.889V51.8184L304.735 52.3446V63H303.639ZM301.534 52.498V51.5553H308.375V52.498H301.534Z" fill="white"/>
<path d="M294.791 63V51.5552H295.844V54.6905L295.734 54.3397C296.056 53.4188 296.596 52.7099 297.356 52.213C298.117 51.716 299.067 51.4675 300.207 51.4675V52.5418C300.163 52.5418 300.119 52.5418 300.075 52.5418C300.031 52.5272 299.987 52.5199 299.944 52.5199C298.672 52.5199 297.678 52.9219 296.962 53.7258C296.246 54.5151 295.887 55.6186 295.887 57.0364V63H294.791Z" fill="white"/>
<path d="M286.357 63.0877C285.203 63.0877 284.179 62.8392 283.288 62.3422C282.411 61.8453 281.717 61.1583 281.205 60.2813C280.708 59.4043 280.459 58.4031 280.459 57.2776C280.459 56.1375 280.693 55.1363 281.161 54.2739C281.643 53.3969 282.301 52.7099 283.134 52.213C283.967 51.716 284.903 51.4675 285.941 51.4675C286.978 51.4675 287.907 51.7087 288.725 52.191C289.558 52.6734 290.209 53.3531 290.676 54.2301C291.159 55.0924 291.4 56.0937 291.4 57.2338C291.4 57.2776 291.393 57.3288 291.378 57.3872C291.378 57.4311 291.378 57.4822 291.378 57.5407H281.271V56.6856H290.786L290.348 57.1022C290.362 56.2106 290.172 55.414 289.778 54.7124C289.397 53.9962 288.879 53.4408 288.221 53.0461C287.563 52.6369 286.803 52.4322 285.941 52.4322C285.093 52.4322 284.333 52.6369 283.66 53.0461C283.003 53.4408 282.484 53.9962 282.104 54.7124C281.724 55.414 281.534 56.2179 281.534 57.1241V57.3215C281.534 58.2569 281.738 59.0901 282.148 59.8209C282.572 60.5371 283.149 61.0998 283.88 61.5091C284.611 61.9037 285.444 62.1011 286.379 62.1011C287.11 62.1011 287.79 61.9695 288.418 61.7064C289.061 61.4433 289.602 61.0414 290.041 60.5006L290.676 61.2241C290.179 61.838 289.551 62.3057 288.791 62.6273C288.045 62.9342 287.234 63.0877 286.357 63.0877Z" fill="white"/>
<path d="M266.666 63V47.6526H272.169C273.455 47.6526 274.558 47.8573 275.479 48.2665C276.4 48.6758 277.109 49.2678 277.606 50.0425C278.103 50.8025 278.351 51.7307 278.351 52.8269C278.351 53.8939 278.103 54.8148 277.606 55.5894C277.109 56.3641 276.4 56.9561 275.479 57.3653C274.558 57.7746 273.455 57.9792 272.169 57.9792H267.279L267.784 57.453V63H266.666ZM267.784 57.5188L267.279 56.9707H272.169C273.82 56.9707 275.07 56.6126 275.918 55.8964C276.78 55.1656 277.211 54.1424 277.211 52.8269C277.211 51.4968 276.78 50.4736 275.918 49.7574C275.07 49.0266 273.82 48.6612 272.169 48.6612H267.279L267.784 48.1131V57.5188Z" fill="white"/>
<path d="M255.281 63.0877C254.272 63.0877 253.497 62.81 252.957 62.2545C252.43 61.6991 252.167 60.939 252.167 59.9743V49.0558H253.264V59.8647C253.264 60.5955 253.446 61.1583 253.812 61.5529C254.177 61.9476 254.703 62.1449 255.39 62.1449C256.106 62.1449 256.698 61.933 257.166 61.5091L257.627 62.2764C257.334 62.5542 256.976 62.7588 256.552 62.8903C256.143 63.0219 255.719 63.0877 255.281 63.0877ZM250.062 52.498V51.5552H256.903V52.498H250.062Z" fill="white"/>
<path d="M244.372 63.0877C243.422 63.0877 242.53 62.9488 241.697 62.6711C240.879 62.3934 240.243 62.0426 239.79 61.6187L240.294 60.7417C240.733 61.1218 241.317 61.4506 242.048 61.7283C242.779 61.9914 243.568 62.123 244.416 62.123C245.614 62.123 246.477 61.9257 247.003 61.531C247.529 61.1364 247.792 60.6175 247.792 59.9744C247.792 59.5066 247.653 59.1412 247.376 58.8781C247.113 58.6004 246.755 58.3885 246.301 58.2423C245.848 58.0961 245.351 57.9792 244.811 57.8915C244.27 57.7892 243.729 57.6796 243.188 57.5626C242.647 57.4457 242.15 57.2776 241.697 57.0584C241.244 56.8391 240.879 56.5395 240.601 56.1594C240.338 55.7648 240.206 55.2459 240.206 54.6028C240.206 54.0181 240.367 53.4919 240.689 53.0242C241.01 52.5565 241.493 52.1837 242.136 51.906C242.779 51.6137 243.583 51.4675 244.547 51.4675C245.264 51.4675 245.98 51.5698 246.696 51.7745C247.427 51.9791 248.019 52.2495 248.472 52.5857L247.968 53.4627C247.485 53.0973 246.945 52.8342 246.345 52.6734C245.746 52.5126 245.139 52.4322 244.526 52.4322C243.415 52.4322 242.596 52.6369 242.07 53.0461C241.558 53.4554 241.303 53.967 241.303 54.5809C241.303 55.0632 241.434 55.4505 241.697 55.7429C241.975 56.0206 242.34 56.2398 242.794 56.4006C243.247 56.5468 243.744 56.671 244.284 56.7733C244.825 56.861 245.366 56.9633 245.907 57.0803C246.448 57.1972 246.945 57.3653 247.398 57.5846C247.851 57.7892 248.209 58.0815 248.472 58.4615C248.75 58.827 248.889 59.3239 248.889 59.9524C248.889 60.5809 248.713 61.1291 248.362 61.5968C248.026 62.0645 247.522 62.4299 246.85 62.693C246.177 62.9561 245.351 63.0877 244.372 63.0877Z" fill="white"/>
<path d="M231.46 63.0877C230.48 63.0877 229.632 62.9123 228.916 62.5615C228.2 62.1961 227.645 61.6553 227.25 60.9391C226.87 60.2082 226.68 59.3093 226.68 58.2423V51.5552H227.776V58.1546C227.776 59.4409 228.105 60.4202 228.763 61.0925C229.421 61.7649 230.349 62.1011 231.547 62.1011C232.41 62.1011 233.155 61.9184 233.784 61.553C234.412 61.1875 234.894 60.676 235.231 60.0182C235.567 59.3459 235.735 58.5566 235.735 57.6503V51.5552H236.831V63H235.779V59.8209L235.932 60.1936C235.596 61.0852 235.033 61.7941 234.244 62.3203C233.469 62.8319 232.541 63.0877 231.46 63.0877Z" fill="white"/>
<path d="M217.774 63.1096C216.941 63.1096 216.159 62.9196 215.428 62.5396C214.712 62.145 214.134 61.6041 213.696 60.9172L214.375 60.1717C214.799 60.8002 215.296 61.2826 215.866 61.6188C216.451 61.9403 217.087 62.1011 217.774 62.1011C219.806 62.1011 220.821 60.8952 220.821 58.4835V48.6612H215.165V47.6526H221.94V58.4835C221.94 60.0182 221.589 61.173 220.887 61.9476C220.186 62.7223 219.148 63.1096 217.774 63.1096Z" fill="white"/>
<path d="M200.223 67.3411C199.186 67.3411 198.199 67.1803 197.264 66.8587C196.328 66.5372 195.568 66.0914 194.983 65.5213L195.575 64.6882C196.145 65.2144 196.825 65.6237 197.614 65.916C198.418 66.2083 199.281 66.3545 200.202 66.3545C201.736 66.3545 202.862 65.9964 203.578 65.2802C204.309 64.564 204.674 63.4385 204.674 61.9037V58.7246L204.893 57.0145L204.718 55.3044V51.5552H205.77V61.7722C205.77 63.687 205.303 65.0901 204.367 65.9818C203.446 66.888 202.065 67.3411 200.223 67.3411ZM199.917 62.5834C198.835 62.5834 197.863 62.3495 197.001 61.8818C196.153 61.3995 195.473 60.7417 194.962 59.9086C194.465 59.0608 194.216 58.0961 194.216 57.0145C194.216 55.9183 194.465 54.9536 194.962 54.1204C195.473 53.2873 196.153 52.6369 197.001 52.1691C197.863 51.7014 198.835 51.4675 199.917 51.4675C200.954 51.4675 201.882 51.6941 202.701 52.1472C203.534 52.5857 204.192 53.2215 204.674 54.0547C205.157 54.8732 205.398 55.8598 205.398 57.0145C205.398 58.1546 205.157 59.1412 204.674 59.9744C204.192 60.8075 203.534 61.4506 202.701 61.9037C201.882 62.3569 200.954 62.5834 199.917 62.5834ZM200.004 61.5968C200.925 61.5968 201.736 61.4068 202.438 61.0267C203.139 60.6321 203.688 60.0913 204.082 59.4043C204.491 58.7027 204.696 57.9061 204.696 57.0145C204.696 56.1083 204.491 55.3117 204.082 54.6247C203.688 53.9377 203.139 53.4042 202.438 53.0242C201.736 52.6442 200.925 52.4541 200.004 52.4541C199.113 52.4541 198.309 52.6442 197.592 53.0242C196.891 53.4042 196.335 53.9377 195.926 54.6247C195.532 55.3117 195.334 56.1083 195.334 57.0145C195.334 57.9061 195.532 58.7027 195.926 59.4043C196.335 60.0913 196.891 60.6321 197.592 61.0267C198.309 61.4068 199.113 61.5968 200.004 61.5968Z" fill="white"/>
<path d="M180.714 63V51.5552H181.766V54.7343L181.613 54.3835C181.963 53.4773 182.541 52.7684 183.345 52.2568C184.148 51.7306 185.135 51.4675 186.304 51.4675C187.24 51.4675 188.051 51.6502 188.738 52.0156C189.44 52.3664 189.981 52.9073 190.361 53.6381C190.755 54.3543 190.952 55.2459 190.952 56.3129V63H189.856V56.4006C189.856 55.1144 189.527 54.135 188.87 53.4627C188.227 52.7903 187.32 52.4541 186.151 52.4541C185.259 52.4541 184.485 52.6369 183.827 53.0023C183.169 53.3677 182.665 53.8793 182.314 54.537C181.978 55.1947 181.81 55.984 181.81 56.9049V63H180.714Z" fill="white"/>
<path d="M174.997 63V51.5552H176.093V63H174.997ZM175.545 48.7708C175.297 48.7708 175.085 48.6831 174.909 48.5077C174.734 48.3323 174.646 48.1277 174.646 47.8938C174.646 47.6453 174.734 47.4334 174.909 47.258C175.085 47.0826 175.297 46.9949 175.545 46.9949C175.808 46.9949 176.02 47.0826 176.181 47.258C176.356 47.4188 176.444 47.6234 176.444 47.8719C176.444 48.1203 176.356 48.3323 176.181 48.5077C176.02 48.6831 175.808 48.7708 175.545 48.7708Z" fill="white"/>
<path d="M160.245 63V46.7318H161.341V54.7344L161.144 54.3836C161.495 53.4773 162.072 52.7684 162.876 52.2569C163.68 51.7307 164.666 51.4676 165.836 51.4676C166.771 51.4676 167.582 51.6503 168.269 52.0157C168.971 52.3665 169.512 52.9073 169.892 53.6381C170.286 54.3543 170.484 55.2459 170.484 56.313V63H169.388V56.4007C169.388 55.1144 169.059 54.1351 168.401 53.4627C167.758 52.7904 166.852 52.4542 165.682 52.4542C164.791 52.4542 164.016 52.6369 163.358 53.0023C162.7 53.3677 162.196 53.8793 161.845 54.537C161.509 55.1948 161.341 55.9841 161.341 56.9049V63H160.245Z" fill="white"/>
<path d="M154.842 63.0877C153.833 63.0877 153.058 62.81 152.518 62.2545C151.991 61.6991 151.728 60.939 151.728 59.9743V49.0558H152.825V59.8647C152.825 60.5955 153.007 61.1583 153.373 61.5529C153.738 61.9476 154.264 62.1449 154.951 62.1449C155.667 62.1449 156.259 61.933 156.727 61.5091L157.188 62.2764C156.895 62.5542 156.537 62.7588 156.113 62.8903C155.704 63.0219 155.28 63.0877 154.842 63.0877ZM149.624 52.498V51.5552H156.464V52.498H149.624Z" fill="white"/>
<path d="M139.449 67.3411C138.922 67.3411 138.425 67.2534 137.958 67.078C137.505 66.9026 137.117 66.6468 136.796 66.3106L137.344 65.4775C137.636 65.7844 137.95 66.011 138.287 66.1572C138.637 66.3033 139.032 66.3764 139.47 66.3764C139.997 66.3764 140.457 66.2302 140.852 65.9379C141.261 65.6456 141.641 65.1121 141.992 64.3374L142.781 62.5834L142.935 62.3861L147.78 51.5552H148.898L143.022 64.5567C142.715 65.2582 142.379 65.8064 142.014 66.201C141.663 66.6103 141.276 66.9026 140.852 67.078C140.428 67.2534 139.96 67.3411 139.449 67.3411ZM142.759 63.285L137.453 51.5552H138.615L143.439 62.3203L142.759 63.285Z" fill="white"/>
<path d="M131.297 63V51.5552H132.35V54.6905L132.24 54.3397C132.561 53.4188 133.102 52.7099 133.862 52.213C134.622 51.716 135.572 51.4675 136.713 51.4675V52.5418C136.669 52.5418 136.625 52.5418 136.581 52.5418C136.537 52.5272 136.493 52.5199 136.449 52.5199C135.178 52.5199 134.184 52.9219 133.468 53.7258C132.751 54.5151 132.393 55.6186 132.393 57.0364V63H131.297Z" fill="white"/>
<path d="M122.863 63.0877C121.708 63.0877 120.685 62.8392 119.794 62.3422C118.917 61.8453 118.222 61.1583 117.711 60.2813C117.214 59.4043 116.965 58.4031 116.965 57.2776C116.965 56.1375 117.199 55.1363 117.667 54.2739C118.149 53.3969 118.807 52.7099 119.64 52.213C120.473 51.716 121.409 51.4675 122.447 51.4675C123.484 51.4675 124.412 51.7087 125.231 52.191C126.064 52.6734 126.715 53.3531 127.182 54.2301C127.665 55.0924 127.906 56.0937 127.906 57.2338C127.906 57.2776 127.899 57.3288 127.884 57.3872C127.884 57.4311 127.884 57.4822 127.884 57.5407H117.777V56.6856H127.292L126.853 57.1022C126.868 56.2106 126.678 55.414 126.283 54.7124C125.903 53.9962 125.384 53.4408 124.727 53.0461C124.069 52.6369 123.309 52.4322 122.447 52.4322C121.599 52.4322 120.839 52.6369 120.166 53.0461C119.509 53.4408 118.99 53.9962 118.61 54.7124C118.23 55.414 118.04 56.2179 118.04 57.1241V57.3215C118.04 58.2569 118.244 59.0901 118.654 59.8209C119.077 60.5371 119.655 61.0998 120.386 61.5091C121.116 61.9037 121.95 62.1011 122.885 62.1011C123.616 62.1011 124.296 61.9695 124.924 61.7064C125.567 61.4433 126.108 61.0414 126.546 60.5006L127.182 61.2241C126.685 61.838 126.057 62.3057 125.297 62.6273C124.551 62.9342 123.74 63.0877 122.863 63.0877Z" fill="white"/>
<path d="M109.847 63L104.695 51.5552H105.857L110.68 62.3861H110.154L115.021 51.5552H116.14L110.965 63H109.847Z" fill="white"/>
<path d="M92.9155 63V47.6526H103.176V48.6612H94.0337V61.9915H103.505V63H92.9155ZM93.9021 55.6991V54.7124H102.212V55.6991H93.9021Z" fill="white"/>
<path d="M72.1816 63V51.5552H73.234V54.7343L73.0806 54.3835C73.4314 53.4773 74.0087 52.7684 74.8126 52.2568C75.6165 51.7306 76.6031 51.4675 77.7725 51.4675C78.7079 51.4675 79.5191 51.6502 80.2061 52.0156C80.9077 52.3664 81.4485 52.9073 81.8286 53.6381C82.2232 54.3543 82.4205 55.2459 82.4205 56.3129V63H81.3243V56.4006C81.3243 55.1144 80.9954 54.135 80.3377 53.4627C79.6945 52.7903 78.7883 52.4541 77.619 52.4541C76.7274 52.4541 75.9527 52.6369 75.295 53.0023C74.6372 53.3677 74.1329 53.8793 73.7822 54.537C73.446 55.1947 73.2779 55.984 73.2779 56.9049V63H72.1816Z" fill="white"/>
<path d="M63.7476 63.0877C62.5929 63.0877 61.5698 62.8392 60.6782 62.3422C59.8012 61.8453 59.1069 61.1583 58.5953 60.2813C58.0983 59.4043 57.8499 58.4031 57.8499 57.2776C57.8499 56.1375 58.0837 55.1363 58.5514 54.2739C59.0338 53.3969 59.6915 52.7099 60.5247 52.213C61.3578 51.716 62.2933 51.4675 63.3311 51.4675C64.3688 51.4675 65.297 51.7087 66.1155 52.191C66.9487 52.6734 67.5991 53.3531 68.0668 54.2301C68.5492 55.0924 68.7903 56.0937 68.7903 57.2338C68.7903 57.2776 68.783 57.3288 68.7684 57.3872C68.7684 57.4311 68.7684 57.4822 68.7684 57.5407H58.6611V56.6856H68.1764L67.7379 57.1022C67.7526 56.2106 67.5625 55.414 67.1679 54.7124C66.7879 53.9962 66.269 53.4408 65.6112 53.0461C64.9535 52.6369 64.1934 52.4322 63.3311 52.4322C62.4833 52.4322 61.7232 52.6369 61.0509 53.0461C60.3931 53.4408 59.8742 53.9962 59.4942 54.7124C59.1142 55.414 58.9242 56.2179 58.9242 57.1241V57.3215C58.9242 58.2569 59.1288 59.0901 59.5381 59.8209C59.9619 60.5371 60.5393 61.0998 61.2701 61.5091C62.001 61.9037 62.8341 62.1011 63.7696 62.1011C64.5004 62.1011 65.1801 61.9695 65.8086 61.7064C66.4517 61.4433 66.9925 61.0414 67.431 60.5006L68.0668 61.2241C67.5699 61.838 66.9413 62.3057 66.1813 62.6273C65.4358 62.9342 64.6246 63.0877 63.7476 63.0877Z" fill="white"/>
<path d="M44.3474 63V46.7318H45.4437V54.7344L45.2463 54.3836C45.5971 53.4773 46.1745 52.7684 46.9784 52.2569C47.7823 51.7307 48.7689 51.4676 49.9382 51.4676C50.8737 51.4676 51.6849 51.6503 52.3719 52.0157C53.0735 52.3665 53.6143 52.9073 53.9943 53.6381C54.389 54.3543 54.5863 55.2459 54.5863 56.313V63H53.4901V56.4007C53.4901 55.1144 53.1612 54.1351 52.5034 53.4627C51.8603 52.7904 50.9541 52.4542 49.7848 52.4542C48.8932 52.4542 48.1185 52.6369 47.4607 53.0023C46.803 53.3677 46.2987 53.8793 45.9479 54.537C45.6117 55.1948 45.4437 55.9841 45.4437 56.9049V63H44.3474Z" fill="white"/>
<path d="M24.5235 63L19.3054 47.6526H20.4894L25.4444 62.3204H24.8524L29.9609 47.6526H31.0352L36.0998 62.3204H35.5298L40.5286 47.6526H41.6249L36.4287 63H35.2448L30.3336 48.8147H30.6186L25.7075 63H24.5235Z" fill="white"/>
<defs>
<filter id="filter0_f_12887_256908" x="0.000117838" y="34.3791" width="374.357" height="4.50941" filterUnits="userSpaceOnUse" color-interpolation-filters="sRGB">
<feFlood flood-opacity="0" result="BackgroundImageFix"/>
<feBlend mode="normal" in="SourceGraphic" in2="BackgroundImageFix" result="shape"/>
<feGaussianBlur stdDeviation="0.464174" result="effect1_foregroundBlur_12887_256908"/>
</filter>
<linearGradient id="paint0_linear_12887_256908" x1="0.928467" y1="36.6339" x2="373.428" y2="36.6339" gradientUnits="userSpaceOnUse">
<stop stop-color="#030D0C"/>
<stop offset="0.254808" stop-color="#278562"/>
<stop offset="0.509615" stop-color="#6BFFC6"/>
<stop offset="0.793269" stop-color="#227456"/>
<stop offset="1" stop-color="#041210"/>
</linearGradient>
</defs>
</svg>
