<svg width="150" height="50" viewBox="0 0 150 50" fill="none" xmlns="http://www.w3.org/2000/svg">
<path d="M35.0176 26.4222C34.9953 22.3255 36.8425 19.2334 40.5812 16.9562C38.4893 13.9534 35.3291 12.3013 31.1564 11.9776C27.2062 11.6651 22.8888 14.2883 21.3088 14.2883C19.6397 14.2883 15.8119 12.0893 12.8075 12.0893C6.59848 12.1897 0 17.0567 0 26.958C0 29.8827 0.53411 32.9041 1.60233 36.0222C3.02662 40.1189 8.16743 50.1654 13.5308 49.9979C16.3349 49.931 18.3155 47.9998 21.9653 47.9998C25.5037 47.9998 27.3397 49.9979 30.4665 49.9979C35.8744 49.9198 40.5256 40.7887 41.8831 36.6808C34.6281 33.2538 35.0176 26.6343 35.0176 26.4222V26.4222ZM28.7195 8.09299C31.7573 4.47626 31.4791 1.18325 31.3901 0C28.7084 0.156278 25.6039 1.83069 23.8347 3.8958C21.8874 6.10602 20.7413 8.84089 20.9861 11.9218C23.8903 12.1451 26.5386 10.6493 28.7195 8.09299V8.09299Z" fill="white"/>
<path d="M58.9357 32.8451L56.0204 41.7183H52.2729L61.8146 13.5192H66.1876L75.7657 41.7183H71.8907L68.8904 32.8451H58.9357ZM68.1433 29.9972L65.398 21.8802C64.7725 20.0385 64.3594 18.3675 63.9404 16.7331H63.8614C63.4423 18.4041 62.9868 20.1177 62.4463 21.8375L59.701 29.9911L68.1433 29.9972ZM78.6082 28.0762C78.6082 25.4843 78.5292 23.3865 78.4381 21.4655H81.73L81.9001 24.9416H81.979C83.4792 22.4717 85.854 21.0081 89.1459 21.0081C94.023 21.0081 97.6854 25.1489 97.6854 31.3022C97.6854 38.5837 93.2699 42.1757 88.5203 42.1757C85.854 42.1757 83.5217 41.0048 82.3131 38.9984H82.2341V50H78.6082V28.0762ZM82.228 33.4733C82.228 34.0221 82.307 34.5161 82.3981 34.9796C83.0662 37.5287 85.2709 39.2911 87.9008 39.2911C91.7758 39.2911 94.0291 36.1139 94.0291 31.4669C94.0291 27.4053 91.9033 23.9414 88.0283 23.9414C85.5321 23.9414 83.1998 25.7405 82.4831 28.503C82.3556 28.9604 82.2341 29.5093 82.2341 30.0094L82.228 33.4733ZM101.475 28.0762C101.475 25.4843 101.396 23.3865 101.305 21.4655H104.597L104.767 24.9416H104.846C106.346 22.4717 108.721 21.0081 112.013 21.0081C116.89 21.0081 120.553 25.1489 120.553 31.3022C120.553 38.5837 116.137 42.1757 111.387 42.1757C108.721 42.1757 106.389 41.0048 105.18 38.9984H105.101V50H101.475V28.0762ZM105.101 33.4733C105.101 34.0221 105.18 34.5161 105.271 34.9796C105.939 37.5287 108.144 39.2911 110.774 39.2911C114.649 39.2911 116.902 36.1139 116.902 31.4669C116.902 27.4053 114.777 23.9414 110.902 23.9414C108.405 23.9414 106.073 25.7405 105.356 28.503C105.229 28.9604 105.107 29.5093 105.107 30.0094L105.101 33.4733ZM124.349 12.0129H128.017V41.7122H124.349V12.0129ZM135.39 32.2597C135.469 37.236 138.64 39.2911 142.302 39.2911C144.926 39.2911 146.511 38.8338 147.884 38.2483L148.509 40.8828C147.222 41.4683 145.011 42.1391 141.804 42.1391C135.597 42.1391 131.886 38.041 131.886 31.9304C131.886 25.8197 135.469 21.0081 141.343 21.0081C147.926 21.0081 149.676 26.8199 149.676 30.546C149.676 31.3022 149.597 31.8816 149.548 32.2597H135.39ZM146.141 29.6252C146.183 27.2834 145.181 23.6426 141.057 23.6426C137.346 23.6426 135.724 27.076 135.433 29.6252H146.141Z" fill="white"/>
</svg>
