<svg width="184" height="67" viewBox="0 0 184 67" fill="none" xmlns="http://www.w3.org/2000/svg">
<path d="M66.9605 45.132L67.3871 51.9892H67.4951C67.7157 51.2885 67.961 50.5571 68.3052 49.8713L70.6304 45.132H74.4083L74.9796 51.9892H75.0876C75.2844 51.3183 75.506 50.6167 75.808 49.9625L78.0783 45.132H83.2056L76.2722 56.6215H71.9724L71.5934 50.3738H71.4314C71.2666 50.9693 71.122 51.5472 70.8547 52.1111L68.6439 56.6215H64.4513L61.8506 45.132H66.9605Z" fill="white"/>
<path d="M82.8458 45.132H87.595L86.8719 49.0021H89.8937L90.6178 45.132H95.367L93.2194 56.6215H88.4702L89.2163 52.6295H86.1935L85.4475 56.6215H80.6982L82.8458 45.132Z" fill="white"/>
<path d="M109.277 50.9069C108.588 54.5947 104.81 56.8039 100.674 56.8039C96.5352 56.8039 93.5829 54.5938 94.2731 50.9069C94.9478 47.2955 98.7697 44.9486 102.889 44.9486C107.008 44.9486 109.951 47.2955 109.277 50.9069V50.9069ZM99.2274 50.9674C98.9812 52.2777 99.8572 53.1775 101.35 53.1775C102.844 53.1775 104.055 52.2777 104.302 50.9674C104.529 49.7475 103.749 48.7276 102.183 48.7276C100.616 48.7285 99.4544 49.7484 99.2274 50.9674ZM110.357 45.1319H115.287L113.827 52.9337H117.966L117.276 56.6206H108.209L110.357 45.1319ZM129.628 52.5066L129.847 52.675C130.62 53.2538 131.593 53.7265 132.727 53.7265C133.213 53.7265 134.018 53.5581 134.115 53.0407C134.212 52.5233 133.573 52.4777 133.139 52.4005L132.177 52.2488C130.305 51.9585 128.868 50.9981 129.202 49.2012C129.714 46.4738 132.93 44.9495 135.88 44.9495C137.427 44.9495 138.79 45.2706 139.992 45.9555L138.111 48.8969C137.357 48.4093 136.474 48.0278 135.412 48.0278C134.981 48.0278 134.325 48.1637 134.239 48.6364C134.158 49.0626 134.758 49.124 135.122 49.2003L136.199 49.4134C138.21 49.8108 139.545 50.7543 139.182 52.7048C138.667 55.4481 135.464 56.8039 132.531 56.8039C130.823 56.8039 128.917 56.4075 127.511 55.7523L129.628 52.5066V52.5066Z" fill="white"/>
<path d="M146.563 52.461L146.366 50.4343C146.313 49.9467 146.317 49.4442 146.32 48.9556H146.139L144.586 52.461H146.563V52.461ZM142.272 56.6215H137.055L143.917 45.132H149.367L152.058 56.6215H146.841L146.66 55.1894H142.937L142.272 56.6215V56.6215Z" fill="white"/>
<path d="M153.795 45.132H158.725L157.265 52.9337H161.404L160.714 56.6206H151.647L153.795 45.132ZM163.778 45.132H172.9L172.312 48.2716H168.155L167.95 49.3688H171.746L171.188 52.3559H167.392L167.182 53.4828H171.483L170.894 56.6215H161.629L163.778 45.132Z" fill="white"/>
<path d="M96.8958 24.4829L103.12 24.2456L97.8973 41.7392H109.065L114.285 24.2456L120.369 24.4829L122.848 16.1768H99.373L96.8958 24.4829ZM73.7732 29.025C72.2115 37.2278 63.6559 42.1449 54.282 42.1449C44.909 42.1449 38.2236 37.2288 39.7854 29.025C41.3141 20.9896 49.9694 15.7701 59.3022 15.7701C68.634 15.7701 75.3019 20.9906 73.7732 29.025ZM51.0066 29.1608C50.4528 32.0763 52.4365 34.077 55.8172 34.077C59.1996 34.077 61.9441 32.0772 62.4988 29.1608C63.0151 26.4492 61.2465 24.1787 57.7011 24.1787C54.1557 24.1768 51.5229 26.4492 51.0066 29.1608Z" fill="white"/>
<path d="M70.3028 39.8054C73.4894 41.2617 77.8047 42.1448 81.676 42.1448C88.3192 42.1448 95.5767 39.128 96.7375 33.0254C97.5632 28.6862 94.5414 26.5841 89.9807 25.7028L87.5439 25.2283C86.72 25.058 85.3606 24.923 85.5409 23.9729C85.7405 22.9223 87.2253 22.6162 88.2039 22.6162C90.6069 22.6162 92.6071 23.4639 94.3153 24.549L98.5756 18.0062C95.8495 16.481 92.7664 15.7701 89.2612 15.7701C82.5777 15.7701 75.2891 19.1601 74.1348 25.2283C73.3731 29.2287 76.6348 31.3644 80.8723 32.0092L83.0491 32.347C84.036 32.5182 85.4842 32.6187 85.2645 33.7707C85.0448 34.9228 83.2222 35.2959 82.1209 35.2959C79.5532 35.2959 77.3488 34.2453 75.5976 32.9574L75.0987 32.5843L70.3028 39.8054V39.8054ZM144.585 16.8207C142.351 16.1423 139.813 15.7701 137.285 15.7701C128.279 15.7701 120.094 21.7368 118.674 29.1952C117.286 36.4843 123.056 42.1457 131.818 42.1457C133.814 42.1457 138.029 41.8405 139.959 41.1287L142.105 31.5691C140.032 33.0263 137.823 33.942 135.255 33.942C131.914 33.942 129.433 31.7719 129.969 28.9598C130.498 26.1793 133.649 23.9767 136.99 23.9767C139.517 23.9767 141.532 25.1631 143.062 26.5543L144.585 16.8207V16.8207ZM162.465 15.7701C153.133 15.7701 144.478 20.9896 142.948 29.0249C141.387 37.2278 148.073 42.1448 157.447 42.1448C166.819 42.1448 175.376 37.2287 176.937 29.0249C178.464 20.9905 171.796 15.7701 162.465 15.7701ZM160.865 24.1767C164.41 24.1767 166.18 26.4473 165.662 29.1589C165.108 32.0744 162.362 34.0751 158.98 34.0751C155.597 34.0751 153.615 32.0753 154.169 29.1589C154.686 26.4491 157.319 24.1767 160.865 24.1767V24.1767ZM42.6644 11.0838C39.8769 10.264 36.7132 9.8136 33.5614 9.8136C22.3282 9.8136 12.1185 17.0254 10.349 26.0406C8.61977 34.8511 15.815 41.6935 26.7424 41.6935C29.2333 41.6935 34.4905 41.325 36.8954 40.4652L39.5711 28.9086C36.9887 30.6711 34.2306 31.7775 31.0275 31.7775C26.8596 31.7775 23.7664 29.1543 24.4337 25.7522C25.0937 22.3929 29.0227 19.7278 33.1897 19.7278C36.3406 19.7278 38.8544 21.1627 40.7612 22.8423L42.6644 11.0838V11.0838Z" fill="white"/>
<path d="M170.064 40.4959C170.232 39.6035 171.21 38.8842 172.276 38.8842C173.333 38.8842 174.05 39.6035 173.883 40.4959C173.714 41.3939 172.731 42.1132 171.672 42.1132C170.607 42.1132 169.898 41.3929 170.064 40.4959ZM173.385 40.4959C173.519 39.7775 173.012 39.3057 172.195 39.3057C171.366 39.3057 170.696 39.7775 170.563 40.4959C170.429 41.2152 170.921 41.6916 171.751 41.6916C172.567 41.6916 173.251 41.2161 173.385 40.4959ZM172.705 41.3399H172.212L171.902 40.6243H171.578L171.445 41.3399H171.025L171.341 39.65H172.309C172.735 39.65 172.966 39.77 172.893 40.1674C172.837 40.4568 172.615 40.6057 172.357 40.6261L172.705 41.3399ZM172.094 40.3014C172.303 40.3014 172.484 40.3014 172.519 40.1208C172.546 39.972 172.365 39.972 172.155 39.972H171.701L171.642 40.3014H172.094V40.3014Z" fill="white"/>
<path d="M11.1299 56.6401H63.3941L63.3905 56.6215H63.3474L62.6865 53.6996H11.1299V56.6401ZM11.1299 52.4638H62.4064L61.7399 49.5242H11.1299V52.4638ZM11.1299 48.2698H61.4397L61.2136 47.1987L60.7513 45.1543H11.1299V48.2698ZM120.341 45.132H129.462L128.875 48.2716H124.719L124.513 49.3688H128.309L127.751 52.3559H123.956L123.745 53.4828H128.045L127.458 56.6215H118.191L120.341 45.132Z" fill="white"/>
</svg>
