<svg width="257" height="67" viewBox="0 0 257 67" fill="none" xmlns="http://www.w3.org/2000/svg">
<path fill-rule="evenodd" clip-rule="evenodd" d="M48.3157 5.54849C58.5044 10.9213 65.4645 21.6331 65.4645 33.9805C65.4645 46.3279 58.5044 57.0736 48.3157 62.4134V58.7421C52.2122 56.4048 55.5082 53.1345 57.9065 49.2639L48.3157 45.3603V39.42L58.8379 47.6629C61.0358 43.5913 62.2678 38.9523 62.2678 33.9797C62.2678 23.5009 56.6728 14.2912 48.3157 9.21817V5.54849ZM33.4979 1.91089C38.8259 1.91089 43.8533 3.21293 48.3157 5.54849V9.21986C44.2197 6.7492 39.4247 5.28166 34.3636 5.11448L38.0259 31.3781L48.3157 39.4209V45.3611L33.4305 39.3204L18.6455 45.3941V39.4868L29.0018 31.3773L32.6314 5.11363C27.5029 5.28082 22.7416 6.7492 18.6455 9.21817V5.54849C23.075 3.21293 28.1361 1.91089 33.4979 1.91089ZM48.3157 62.4134C43.8533 64.749 38.8251 66.0831 33.4979 66.0831C28.137 66.0831 23.0759 64.749 18.6464 62.4464V58.7421C22.9757 61.3774 28.0696 62.8795 33.4979 62.8795C38.8925 62.8795 43.9544 61.3774 48.3157 58.7421V62.4134ZM18.6464 62.4464C8.4231 57.0736 1.46387 46.3279 1.46387 33.9805C1.46387 21.6331 8.4231 10.9213 18.6464 5.54849V9.21986C10.2547 14.2921 4.66053 23.4688 4.66053 33.9805C4.66053 38.9523 5.92623 43.6588 8.12415 47.7296L18.6464 39.4868V45.3941L9.08921 49.3306C11.4867 53.17 14.7499 56.4056 18.6464 58.7421V62.4464Z" fill="white"/>
<path d="M163.681 23.6056C162.214 23.9962 160.893 24.2314 159.252 24.4082V24.9081C161.099 24.9081 161.335 25.1153 161.335 26.6456V31.7907C160.248 30.0266 159.397 29.4981 157.814 29.4981C154.674 29.4981 152.476 32.4671 152.476 36.7028C152.476 40.9385 154.704 43.9098 157.902 43.9098C159.574 43.9098 160.718 43.1467 161.538 41.4995C161.656 42.6161 161.657 42.734 161.95 43.8522C163.153 43.4692 163.651 43.3502 165.383 43.1456L165.821 43.0855V42.5857C163.856 42.5272 163.681 42.3796 163.681 40.5863V23.6056ZM84.5323 23.8195C83.4172 23.9379 82.8294 23.9685 81.745 23.9685C80.9228 23.9685 80.4838 23.9399 79.3411 23.8507V24.5837C81.3643 24.7021 81.7737 24.9966 81.7737 26.35V26.5278L81.1578 40.9684C81.0995 42.5572 80.8078 42.7913 78.7539 42.939V43.6455C80.2801 43.5271 80.8644 43.4989 81.6851 43.4989C82.5072 43.4989 83.0928 43.5271 84.5899 43.6455V42.939C82.536 42.7913 82.1548 42.5262 82.1548 41.2327V40.9684L82.742 25.7036L87.5522 38.7335L87.9045 39.762L88.3167 40.9083L88.7266 42.057L89.0501 42.9991H89.4911L89.8123 42.0282L90.1933 40.9083L90.6032 39.8221L90.9555 38.8488L95.7968 25.7324L96.0604 40.9684V41.115C96.0604 42.4977 95.621 42.8206 93.6254 42.939V43.6455C95.4737 43.4686 96.1772 43.41 97.2924 43.41C98.406 43.41 99.111 43.4687 100.959 43.6455V42.939C98.8471 42.7913 98.5822 42.5572 98.553 40.9684L98.2319 26.5279V26.3212C98.2319 24.997 98.6713 24.7021 100.667 24.5837V23.8507C99.5518 23.94 99.0825 23.9685 98.3493 23.9685C97.4689 23.9685 96.8539 23.9379 95.5332 23.8195L89.9896 38.7046L84.5323 23.8195ZM198.641 23.9372V24.675C200.754 24.7919 201.048 25.0256 201.048 26.6143V40.8794C201.048 42.4682 200.813 42.6732 198.641 42.85V43.5566H206.064C208.235 43.5566 209.408 43.2924 210.639 42.528C212.107 41.5867 213.074 39.7913 213.074 37.938C213.074 36.3508 212.4 34.9109 211.255 34.0281C210.639 33.5574 209.993 33.2921 208.938 33.086C211.05 32.2924 212.166 30.7918 212.166 28.7339C212.166 27.2036 211.52 25.8491 210.404 24.997C209.407 24.2618 208.263 23.9372 206.356 23.9372L198.641 23.9372ZM203.512 24.8504H206.004C208.469 24.8504 209.554 26.0555 209.554 28.7916C209.554 30.1435 209.234 31.1152 208.588 31.8796C207.942 32.6148 207.15 32.8505 205.506 32.8505H203.512V24.8504ZM136.045 29.0559L135.251 30.5555C134.313 29.6435 133.521 29.3203 132.26 29.3203C128.798 29.3203 126.451 32.3209 126.451 36.7028C126.451 40.9969 128.769 43.881 132.172 43.881C134.813 43.881 136.484 42.1734 136.864 39.0266H135.661C135.31 41.6151 134.223 42.9101 132.404 42.9101C130.146 42.9101 129.003 40.8216 129.003 36.7028C129.003 32.4963 130.295 30.1157 132.495 30.1157C134.285 30.1157 135.368 31.3502 135.896 33.9079H136.543V29.0559L136.045 29.0559ZM188.607 29.1449L188.108 30.3488C187.111 29.6736 186.261 29.4092 185.117 29.4092C182.535 29.4092 180.717 30.9976 180.717 33.3215C180.717 35.0272 181.393 35.8505 183.533 36.8518L184.882 37.467L185.997 37.9668C187.434 38.6143 187.993 39.291 187.993 40.2907C187.993 41.7918 186.701 42.939 184.971 42.939C182.917 42.939 181.684 41.6451 181.155 38.969L180.513 38.9978V43.9098H181.04L181.742 42.5857C182.858 43.4685 183.913 43.8209 185.263 43.8209C188.021 43.8209 189.987 42.0582 189.987 39.5866C189.987 37.8517 189.194 36.9091 186.965 35.9386L185.733 35.4099C183.062 34.2333 182.624 33.8517 182.624 32.6751C182.624 31.2924 183.827 30.2335 185.381 30.2335C187.229 30.2335 188.196 31.352 188.46 33.7036H189.136V29.1449H188.607ZM231.97 29.1449C230.8 29.5571 229.8 29.7915 228.097 30.0268V30.5267C228.244 30.5267 228.393 30.5555 228.48 30.5555C229.948 30.5555 230.122 30.7339 230.151 31.9397V32.3795V41.4682C230.151 42.7325 229.861 42.969 228.071 43.0567V43.6455C229.597 43.4979 230.21 43.47 231.237 43.47C232.293 43.47 232.881 43.4978 234.407 43.6455V43.0567C232.881 42.9983 232.5 42.7034 232.5 41.5283V34.4078C232.5 31.9962 233.555 30.7334 235.551 30.7334C237.427 30.7334 238.189 31.762 238.189 34.3213V41.5283C238.189 42.7034 237.809 42.9983 236.224 43.0567V43.6455C237.749 43.4979 238.335 43.4701 239.421 43.4701C240.477 43.4701 241.066 43.4978 242.621 43.6455V43.0567C240.831 42.9691 240.536 42.7325 240.536 41.4682V34.4078C240.536 33.2912 240.389 32.4679 240.095 31.7619C239.509 30.3208 237.983 29.4092 236.224 29.4092C234.525 29.4092 233.319 30.1155 232.262 31.7042C232.202 30.5861 232.117 29.8216 231.97 29.1449V29.1449ZM119.074 29.2025C117.869 29.5547 116.872 29.7326 115.2 29.8802V30.4089H115.582C117.106 30.4381 117.254 30.5866 117.283 31.8508V32.3218V41.4682C117.283 42.7325 116.962 42.969 115.172 43.0567V43.6455C116.785 43.4978 117.401 43.4676 118.458 43.4676C119.484 43.4676 120.1 43.4978 121.712 43.6455V43.0567C119.924 42.969 119.63 42.7325 119.63 41.4682V35.321C119.63 32.408 120.597 30.5579 122.122 30.5579C122.65 30.5579 123.004 30.8498 123.004 31.262V31.5264L122.944 31.822C122.915 31.9404 122.887 32.0567 122.887 32.1152C122.887 32.7042 123.415 33.1149 124.09 33.1149C124.823 33.1149 125.322 32.5554 125.322 31.7018C125.322 30.2914 124.236 29.3203 122.769 29.3203C121.245 29.3203 119.981 30.2921 119.337 31.9686V31.6441C119.278 30.7613 119.219 30.2914 119.074 29.2025V29.2025ZM108.085 29.3203C104.564 29.3203 102.366 32.1733 102.366 36.7028C102.366 41.2322 104.564 43.881 108.348 43.881C111.223 43.881 113.1 42.0853 113.482 39.0554H112.31C111.957 41.5563 110.666 42.9101 108.583 42.9101C105.914 42.9101 104.742 40.8524 104.713 36.263H113.453C113.395 31.7335 111.547 29.3203 108.085 29.3203ZM144.675 29.3203C141.155 29.3203 138.954 32.1733 138.954 36.7028C138.954 41.2322 141.155 43.881 144.939 43.881C147.813 43.881 149.692 42.0853 150.072 39.0554H148.898C148.547 41.5563 147.257 42.9101 145.174 42.9101C142.505 42.9101 141.33 40.8524 141.301 36.263H150.044C149.984 31.7335 148.137 29.3203 144.675 29.3203ZM172.654 29.3203C169.134 29.3203 166.933 32.1733 166.933 36.7028C166.933 41.2322 169.134 43.881 172.918 43.881C175.792 43.881 177.67 42.0853 178.051 39.0554H176.877C176.524 41.5563 175.236 42.9101 173.153 42.9101C170.484 42.9101 169.309 40.8524 169.28 36.263H178.023C177.963 31.7335 176.115 29.3203 172.654 29.3203V29.3203ZM221.178 29.3203C217.657 29.3203 215.457 32.1733 215.457 36.7028C215.457 41.2322 217.657 43.881 221.441 43.881C224.316 43.881 226.193 42.0853 226.575 39.0554H225.401C225.049 41.5563 223.76 42.9101 221.679 42.9101C219.008 42.9101 217.835 40.8524 217.805 36.263H226.546C226.486 31.7335 224.64 29.3203 221.178 29.3203V29.3203ZM244.759 29.6735L244.08 33.497H244.67C245.725 30.85 246.194 30.4377 248.102 30.4377H251.707L243.759 43.5566H253.849L254.614 39.3222H253.998C253.116 41.9983 252.297 42.7923 250.3 42.7923H246.87L254.849 29.6735L244.759 29.6735ZM108.056 30.0845C109.963 30.0845 110.931 31.7319 111.107 35.2032H104.77C105.063 31.8211 106.178 30.0845 108.056 30.0845V30.0845ZM144.644 30.0845C146.551 30.0845 147.518 31.7319 147.695 35.2032H141.358C141.651 31.8211 142.766 30.0845 144.644 30.0845ZM172.625 30.0845C174.532 30.0845 175.5 31.7319 175.676 35.2032H169.339C169.632 31.8211 170.748 30.0845 172.625 30.0845ZM221.149 30.0845C223.055 30.0845 224.023 31.7319 224.2 35.2032H217.863C218.156 31.8211 219.271 30.0845 221.149 30.0845ZM158.077 30.32C160.248 30.32 161.363 32.5572 161.363 36.8806C161.363 40.9687 160.278 43.0855 158.166 43.0855C156.054 43.0855 154.94 40.8804 154.94 36.6739C154.94 32.409 155.965 30.32 158.077 30.32V30.32ZM203.512 33.7637H206.299C207.854 33.7637 208.733 34.0266 209.407 34.7033C210.082 35.3801 210.462 36.6438 210.462 38.0557C210.462 40.9964 208.996 42.6458 206.385 42.6458H205.331C203.775 42.6458 203.512 42.4084 203.512 41.115V33.7637ZM191.746 34.9292V36.4504H198.301V34.9292H191.746Z" fill="white"/>
</svg>
