<svg width="73" height="97" viewBox="0 0 73 97" fill="none" xmlns="http://www.w3.org/2000/svg">
<path d="M36.6813 60.9934C24.6433 60.9934 14.8739 51.2391 14.8739 39.1985C14.8739 27.136 24.6433 17.3888 36.6813 17.3888C48.7299 17.3888 58.4871 27.136 58.4871 39.1985C58.4871 51.2391 48.7299 60.9934 36.6813 60.9934ZM36.6813 6.49915C18.6348 6.49915 4.00049 21.1379 4.00049 39.1985C4.00049 57.2452 18.6348 71.8793 36.6813 71.8793C54.7357 71.8793 69.393 57.2452 69.393 39.1985C69.393 21.1379 54.7357 6.49915 36.6813 6.49915Z" fill="white"/>
<path d="M36.6815 27.9933C30.4956 27.9933 25.4834 32.9935 25.4834 39.1985C25.4834 45.383 30.4954 50.3981 36.6815 50.3981C42.8733 50.3981 47.8963 45.3828 47.8963 39.1985C47.8963 32.9937 42.8733 27.9933 36.6815 27.9933Z" fill="white"/>
<path d="M7.1231 80.4079H3.51855V78.1833H13.3725V80.4079H9.768V90.212H7.1231V80.4079Z" fill="white"/>
<path d="M12.2271 90.212H14.9042L15.8483 87.5327H20.3461L21.2561 90.212H24.0013L19.5036 78.1833H16.7921L12.2271 90.212ZM18.1057 81.1473H18.1389L19.6543 85.5618H16.5401L18.1057 81.1473Z" fill="white"/>
<path d="M25.0444 90.2121H27.6905V85.5121H30.3336C31.6656 85.5121 32.1531 86.0676 32.338 87.3305C32.4744 88.291 32.4401 89.4537 32.7605 90.2123H35.4037C34.9326 89.5387 34.95 88.1217 34.8988 87.3639C34.8141 86.1492 34.445 84.8872 33.1469 84.5506V84.5173C34.4793 83.9786 35.0515 82.9185 35.0515 81.5015C35.0515 79.6835 33.686 78.1841 31.5304 78.1841H25.0446L25.0444 90.2121ZM27.6905 80.2387H30.5884C31.7657 80.2387 32.4063 80.7443 32.4063 81.9054C32.4063 83.1177 31.7657 83.624 30.5884 83.624H27.6905V80.2387Z" fill="white"/>
<path d="M45.5617 88.8465C44.6343 90.0443 43.4236 90.5008 42.2606 90.5008C38.5387 90.5008 36.3481 87.7167 36.3481 84.2461C36.3481 80.6765 38.5385 77.8982 42.2606 77.8982C44.7193 77.8982 47.0448 79.4142 47.3319 82.141H44.8038C44.5 80.8089 43.5064 80.1207 42.2606 80.1207C39.8853 80.1207 38.9912 82.141 38.9912 84.2461C38.9912 86.2519 39.8853 88.2725 42.2606 88.2725C43.9793 88.2725 44.9711 87.3466 45.1235 85.6778H42.4632V83.7091H47.5156V90.2118H45.8299L45.5617 88.8465Z" fill="white"/>
<path d="M49.3184 78.1833H58.3105V80.4079H51.9628V82.9842H57.7899V85.0413H51.9628V87.9875H58.4469V90.212H49.3184V78.1833Z" fill="white"/>
<path d="M63.2307 80.4079H59.626V78.1833H69.4813V80.4079H65.8747V90.212H63.2307V80.4079Z" fill="white"/>
</svg>
