<svg width="248" height="33" viewBox="0 0 248 33" fill="none" xmlns="http://www.w3.org/2000/svg">
<g clip-path="url(#clip0_2002_2337)">
<path d="M170.399 0.0416271L164.114 0.0582798V32.975H192.936C196.089 31.6096 197.778 29.2491 198.43 26.4933H170.382L170.399 0.0416271ZM217.432 6.61915H241.474C244.815 5.94474 247.303 2.9349 248 0.0249743H210.902C211.596 2.9349 214.12 5.94474 217.432 6.61915ZM139.57 6.52756C142.91 5.53677 145.724 2.9349 146.409 0.0499524H111.13V19.4994H140.006V26.3267L117.358 26.3475C113.806 27.355 110.804 29.7862 109.299 33L111.13 32.9667H146.213V13.0343H117.358V6.52756H139.57V6.52756ZM211.873 32.9667H218.125V19.7159H240.887V32.9667H247.135V13.0926L211.873 13.0593V32.9667ZM62.5394 6.59833H86.5779C89.9223 5.91976 92.4061 2.90992 93.1035 -3.76017e-06H56.0097C56.7031 2.90992 59.2236 5.91976 62.5394 6.59833M0 0.0749305C0.721891 2.95572 3.1649 5.89063 6.51333 6.63164H16.632L17.1459 6.83979V32.9001H23.4676V6.83979L24.0385 6.63164H34.1695C37.5505 5.74076 39.9405 2.95572 40.6543 0.0749305V0.0124863H0V0.0749305V0.0749305ZM62.5394 32.9709H86.5779C89.9223 32.2881 92.4061 29.2866 93.1035 26.3725H56.0097C56.7031 29.2866 59.2236 32.2881 62.5394 32.9709M62.5394 19.6077H86.5779C89.9223 18.9333 92.4061 15.9234 93.1035 13.0135H56.0097C56.7031 15.9234 59.2236 18.9333 62.5394 19.6077Z" fill="white"/>
</g>
<defs>
<clipPath id="clip0_2002_2337">
<rect width="248" height="33" fill="white"/>
</clipPath>
</defs>
</svg>
