<svg width="165" height="40" viewBox="0 0 165 40" fill="none" xmlns="http://www.w3.org/2000/svg">
<g clip-path="url(#clip0_2002_2253)">
<path d="M13.7864 15.753V14.1943C13.2454 14.1086 12.6989 14.0616 12.1511 14.0537C6.84797 14.0426 2.1529 17.4791 0.560448 22.5375C-1.03201 27.5959 0.847705 33.1022 5.20087 36.1309C1.94004 32.6411 1.03461 27.5608 2.88903 23.1593C4.74345 18.7578 9.01139 15.8572 13.7864 15.753Z" fill="white"/>
<path d="M14.0801 33.4096C17.0451 33.4057 19.4823 31.0697 19.6121 28.1075V1.67368H24.4415C24.3429 1.12134 24.2959 0.56104 24.301 0H17.6957V26.4083C17.5859 29.3856 15.1429 31.7439 12.1636 31.7487C11.2733 31.7412 10.3975 31.5222 9.6084 31.1099C10.6457 32.5471 12.3076 33.4018 14.0801 33.4096V33.4096Z" fill="white"/>
<path d="M33.4618 10.6426V9.17336C31.6845 9.17396 29.9466 8.64949 28.4663 7.66577C29.764 9.17427 31.5175 10.2192 33.4618 10.6426Z" fill="white"/>
<path d="M28.4664 7.66568C27.0082 6.0052 26.2044 3.87072 26.205 1.66089H24.4419C24.9021 4.13012 26.3574 6.30148 28.4664 7.66568Z" fill="white"/>
<path d="M12.1512 20.6591C9.60677 20.6721 7.39777 22.4153 6.79346 24.8869C6.18914 27.3586 7.34462 29.9243 9.59597 31.1099C8.37608 29.4258 8.20376 27.1997 9.14991 25.3478C10.0961 23.496 12.0008 22.3312 14.0804 22.3327C14.6349 22.3396 15.1856 22.4257 15.7157 22.5883V15.868C15.1743 15.7869 14.6278 15.7442 14.0804 15.7402H13.7865V20.8507C13.2536 20.7078 12.7027 20.6432 12.1512 20.6591Z" fill="white"/>
<path d="M33.4615 10.6426V15.753C30.1713 15.7466 26.9665 14.7052 24.301 12.7762V26.2039C24.2869 32.9043 18.8513 38.3285 12.1509 38.3285C9.66258 38.333 7.23418 37.5651 5.20068 36.131C8.59431 39.7809 13.8758 40.9823 18.5143 39.1597C23.1529 37.337 26.2036 32.8614 26.2047 27.8776V14.4882C28.879 16.4046 32.0878 17.4325 35.3779 17.4267V10.847C34.7338 10.845 34.0916 10.7764 33.4615 10.6426Z" fill="white"/>
<path d="M24.3012 26.2039V12.7761C26.9748 14.6941 30.1841 15.7221 33.4744 15.7146V10.6042C31.5305 10.1937 29.7728 9.16237 28.4662 7.66568C26.3572 6.30148 24.9019 4.13012 24.4417 1.66089H19.6123V28.1075C19.5157 30.467 17.9354 32.5064 15.6747 33.1889C13.4141 33.8714 10.9692 33.0473 9.58305 31.1355C7.33169 29.9498 6.17622 27.3841 6.78053 24.9124C7.38485 22.4408 9.59385 20.6976 12.1383 20.6846C12.6929 20.6896 13.2439 20.7756 13.7736 20.9401V15.8296C8.9718 15.911 4.67161 18.8218 2.81192 23.2496C0.952234 27.6774 1.88437 32.7858 5.18805 36.2715C7.2416 37.6583 9.67353 38.3768 12.1511 38.3284C18.8514 38.3284 24.2871 32.9042 24.3012 26.2039V26.2039Z" fill="white"/>
<path d="M60.2883 15.9014H54.9478V37.6209H48.2659V15.9014H41.5968L41.584 9.94775H62.1791L60.2883 15.9014Z" fill="white"/>
<path d="M115.085 15.9014H109.285V37.6209H102.616V15.9014H95.921L95.9082 9.94775H116.976L115.085 15.9014Z" fill="white"/>
<path d="M70.0364 37.6209H63.4823L63.4312 18.7505H70.0364V37.6209Z" fill="white"/>
<path d="M79.2483 22.7622L85.7896 16.3742H93.6597L85.3936 24.3976L94.6563 37.6209H87.3867L81.203 28.4348L79.2483 30.3257V37.6209H72.6558V9.87109H79.2483V22.7622Z" fill="white"/>
<path d="M149.197 22.7622L155.726 16.3742H163.596L155.33 24.3976L164.529 37.6209H157.259L151.088 28.4348L149.197 30.3257V37.6209H142.592L142.528 9.87109H149.197V22.7622Z" fill="white"/>
<path d="M66.7403 16.5913C68.5748 16.5913 70.0621 15.1041 70.0621 13.2696C70.0621 11.435 68.5748 9.94775 66.7403 9.94775C64.9057 9.94775 63.4185 11.435 63.4185 13.2696C63.4185 15.1041 64.9057 16.5913 66.7403 16.5913Z" fill="white"/>
<path d="M116.133 26.3268C116.135 20.4326 120.669 15.5311 126.546 15.071C126.252 15.071 125.856 15.071 125.562 15.071C119.59 15.4194 114.925 20.3639 114.925 26.346C114.925 32.3281 119.59 37.2726 125.562 37.6209C125.856 37.6209 126.252 37.6209 126.546 37.6209C120.655 37.1598 116.115 32.2357 116.133 26.3268V26.3268Z" fill="white"/>
<path d="M129.113 15.0327C128.807 15.0327 128.411 15.0327 128.117 15.0327C133.974 15.5165 138.481 20.4114 138.481 26.2885C138.481 32.1656 133.974 37.0605 128.117 37.5443C128.411 37.5443 128.807 37.5443 129.113 37.5443C135.351 37.5443 140.407 32.4877 140.407 26.2502C140.407 20.0126 135.351 14.9561 129.113 14.9561V15.0327Z" fill="white"/>
<path d="M127.325 31.8206C124.291 31.8206 121.831 29.3609 121.831 26.3268C121.831 23.2927 124.291 20.8331 127.325 20.8331C130.359 20.8331 132.819 23.2927 132.819 26.3268C132.812 29.358 130.356 31.8135 127.325 31.8206ZM127.325 15.0327C121.087 15.0327 116.031 20.0893 116.031 26.3268C116.031 32.5644 121.087 37.6209 127.325 37.6209C133.562 37.6209 138.619 32.5644 138.619 26.3268C138.619 23.3314 137.429 20.4587 135.311 18.3407C133.193 16.2226 130.32 15.0327 127.325 15.0327V15.0327Z" fill="white"/>
</g>
<defs>
<clipPath id="clip0_2002_2253">
<rect width="164.529" height="40" fill="white"/>
</clipPath>
</defs>
</svg>
