<svg width="135" height="43" viewBox="0 0 135 43" fill="none" xmlns="http://www.w3.org/2000/svg">
<g clip-path="url(#clip0_2002_2284)">
<path d="M87.9304 0.0523682C78.3449 0.0523682 69.7788 4.92466 69.7788 13.9266C69.7788 24.25 84.9711 24.963 84.9711 30.1492C84.9711 32.3329 82.4192 34.2878 78.0607 34.2878C71.8751 34.2878 67.252 31.5563 67.252 31.5563L65.2739 40.6403C65.2739 40.6403 70.5996 42.9475 77.6704 42.9475C88.1504 42.9475 96.3969 37.8359 96.3969 28.6802C96.3969 17.7716 81.1415 17.0797 81.1415 12.2661C81.1415 10.5552 83.2362 8.68099 87.5823 8.68099C92.4858 8.68099 96.4866 10.6675 96.4866 10.6675L98.4226 1.89402C98.4226 1.89402 94.0695 0.0523682 87.9304 0.0523682ZM0.232162 0.714579L0 2.03887C0 2.03887 4.0327 2.76257 7.66473 4.20639C12.3412 5.86185 12.6745 6.82568 13.462 9.81908L22.0445 42.2646H33.5496L51.2739 0.714579H39.7953L28.4064 28.9646L23.7591 5.01848C23.3328 2.27794 21.1739 0.714579 18.5314 0.714579H0.232162V0.714579ZM55.8896 0.714579L46.885 42.2645H57.8308L66.8038 0.714446H55.8896V0.714579ZM116.938 0.714579C114.299 0.714579 112.9 2.10036 111.874 4.52193L95.8377 42.2645H107.316L109.537 35.974H123.521L124.872 42.2645H135L126.164 0.714579H116.938V0.714579ZM118.431 11.9401L121.833 27.5317H112.718L118.431 11.9401Z" fill="white"/>
</g>
<defs>
<clipPath id="clip0_2002_2284">
<rect width="135" height="43" fill="white"/>
</clipPath>
</defs>
</svg>
